<svg viewBox="0 0 756 652" fill="none" xmlns="http://www.w3.org/2000/svg">
<g id="chat-icon">
<g id="Group" opacity="0.5">
<path id="Vector" opacity="0.5" d="M546.67 0.989988L214.17 1.79999C212.375 1.80392 210.599 2.16147 208.942 2.85222C207.286 3.54296 205.782 4.55334 204.516 5.82564C203.25 7.09793 202.248 8.60719 201.565 10.2672C200.883 11.9271 200.535 13.7053 200.54 15.5L202.05 637.39C202.054 639.185 202.411 640.961 203.102 642.617C203.793 644.274 204.803 645.778 206.076 647.044C207.348 648.31 208.857 649.312 210.517 649.995C212.177 650.677 213.955 651.025 215.75 651.02L548.25 650.21C550.046 650.206 551.823 649.848 553.48 649.157C555.137 648.465 556.641 647.454 557.907 646.181C559.173 644.907 560.176 643.397 560.857 641.736C561.539 640.075 561.887 638.296 561.88 636.5L560.37 14.61C560.365 12.8161 560.006 11.0409 559.315 9.38556C558.624 7.73026 557.613 6.22733 556.341 4.9626C555.069 3.69786 553.56 2.69609 551.9 2.01446C550.241 1.33284 548.464 0.984727 546.67 0.989988V0.989988Z" fill="url(#paint0_linear)"/>
</g>
<path id="Vector_2" d="M541.853 9.48058L219.024 10.2694C211.491 10.2878 205.399 16.4096 205.418 23.9427L206.895 628.611C206.914 636.144 213.035 642.236 220.569 642.218L543.398 641.429C550.931 641.41 557.023 635.289 557.004 627.755L555.527 23.0872C555.508 15.5541 549.387 9.46218 541.853 9.48058Z" fill="#5E9194"/>
<path id="&#60;Path&#62;" opacity="0.4" d="M468.43 25.5C467.434 32.203 464.073 38.3285 458.954 42.7688C453.835 47.2092 447.296 49.6713 440.52 49.71L319.59 50C312.819 49.9879 306.275 47.5552 301.14 43.1411C296.006 38.7271 292.618 32.6227 291.59 25.93L227.54 26.09C225.793 26.0939 224.065 26.4419 222.453 27.1139C220.84 27.7859 219.376 28.7689 218.144 30.0067C216.912 31.2445 215.936 32.7129 215.271 34.328C214.606 35.9432 214.266 37.6734 214.27 39.42L215.66 613.09C215.664 614.837 216.012 616.567 216.685 618.18C217.357 619.793 218.341 621.257 219.58 622.489C220.819 623.722 222.289 624.698 223.905 625.362C225.521 626.026 227.253 626.365 229 626.36L535 625.62C536.747 625.616 538.475 625.268 540.087 624.596C541.7 623.924 543.164 622.941 544.396 621.703C545.628 620.466 546.604 618.997 547.269 617.382C547.934 615.767 548.274 614.037 548.27 612.29L546.88 38.62C546.876 36.8734 546.528 35.1447 545.856 33.5326C545.184 31.9205 544.201 30.4565 542.963 29.2243C541.726 27.992 540.257 27.0157 538.642 26.3509C537.027 25.6862 535.297 25.3461 533.55 25.35L468.43 25.5Z" fill="white"/>
<path id="Vector_3" d="M414.303 32.7709L340.292 33.8818C339.187 33.8984 338.305 34.8072 338.322 35.9116L338.335 36.7915C338.352 37.896 339.26 38.7779 340.365 38.7613L414.377 37.6503C415.481 37.6337 416.363 36.725 416.346 35.6205L416.333 34.7406C416.316 33.6362 415.408 32.7543 414.303 32.7709Z" fill="#DBDBDB"/>
<path id="Vector_4" d="M432.942 37.3618C434.56 37.3375 435.852 36.0062 435.828 34.3882C435.803 32.7701 434.472 31.4782 432.854 31.5025C431.236 31.5268 429.944 32.8581 429.968 34.4761C429.992 36.0941 431.324 37.3861 432.942 37.3618Z" fill="#DBDBDB"/>
<g id="Group_2" opacity="0.5">
<path id="Vector_5" opacity="0.5" d="M341.94 200.85C341.934 183.783 346.347 167.005 354.749 152.149C363.152 137.293 375.258 124.866 389.888 116.078C404.519 107.289 421.176 102.438 438.237 101.998C455.299 101.557 472.184 105.541 487.249 113.563C502.314 121.584 515.045 133.37 524.203 147.772C533.362 162.174 538.635 178.701 539.51 195.746C540.385 212.791 536.832 229.772 529.197 245.036C521.561 260.301 510.104 273.328 495.94 282.85L495.88 283.29C492.658 286.413 488.848 288.864 484.67 290.5L484.54 290.06C479.91 294.06 460.42 300.39 438.03 300.33H437.54C423.36 300.33 407.96 297.83 394.42 290.5C394.42 290.5 394.3 290.24 394.12 289.75C390.69 288.139 387.543 285.984 384.8 283.37C384.747 282.99 384.693 282.617 384.64 282.25C371.455 273.161 360.679 261.003 353.24 246.822C345.801 232.641 341.923 216.864 341.94 200.85V200.85Z" fill="url(#paint1_linear)"/>
</g>
<g id="Group_3" opacity="0.5">
<path id="Vector_6" opacity="0.5" d="M0 115.11V257.83H224.86C224.86 257.83 241.46 290.5 270 300C270 300 260.89 276.86 270.4 257.83H333V115.11H0Z" fill="url(#paint2_linear)"/>
</g>
<g id="&#8;chat-left">
<path id="Vector_7" d="M9 120V255H234C234 255 234 282 261 291C261 291 252 273 261 255H324V120H9Z" fill="#C2D1CE"/>
<path id="Vector_8" d="M216 147H36V165H216V147Z" fill="white"/>
<path id="Vector_9" d="M279 174H36V192H279V174Z" fill="white"/>
<path id="Vector_10" d="M252 201H36V219H252V201Z" fill="white"/>
</g>
<g id="chat-rigth">
<path id="Vector_11" d="M756 395V530H531C531 530 531 557 504 566C504 566 513 548 504 530H441V395H756Z" fill="#C2D1CE"/>
<path id="Vector_12" d="M658 422H478V440H658V422Z" fill="white"/>
<path id="Vector_13" d="M721 449H478V467H721V449Z" fill="white"/>
<path id="Vector_14" d="M694 476H478V494H694V476Z" fill="white"/>
</g>
<path id="Vector_15" d="M458 150H416C410.435 150.016 405.104 152.234 401.169 156.169C397.234 160.103 395.016 165.435 395 171V213C395.016 218.565 397.234 223.897 401.169 227.831C405.104 231.766 410.435 233.984 416 234H458C463.565 233.984 468.897 231.766 472.831 227.831C476.766 223.896 478.984 218.564 479 213V171C478.984 165.436 476.766 160.104 472.831 156.169C468.897 152.234 463.565 150.016 458 150H458ZM437 217.2C432.016 217.2 427.144 215.722 423 212.953C418.855 210.184 415.626 206.248 413.718 201.644C411.811 197.039 411.312 191.972 412.284 187.084C413.257 182.195 415.657 177.705 419.181 174.181C422.705 170.657 427.195 168.257 432.084 167.284C436.972 166.312 442.039 166.811 446.644 168.718C451.248 170.626 455.184 173.856 457.953 178C460.722 182.144 462.2 187.016 462.2 192C462.198 198.683 459.543 205.092 454.817 209.817C450.092 214.543 443.683 217.198 437 217.2V217.2ZM464.3 171C463.054 171 461.836 170.63 460.8 169.938C459.764 169.246 458.956 168.262 458.48 167.111C458.003 165.96 457.878 164.693 458.121 163.471C458.364 162.249 458.964 161.126 459.845 160.245C460.726 159.364 461.849 158.764 463.071 158.521C464.293 158.278 465.56 158.403 466.711 158.88C467.862 159.356 468.846 160.164 469.538 161.2C470.23 162.236 470.6 163.454 470.6 164.7C470.602 165.528 470.44 166.348 470.124 167.113C469.809 167.879 469.345 168.574 468.759 169.159C468.174 169.745 467.478 170.209 466.713 170.525C465.948 170.84 465.128 171.002 464.3 171V171Z" fill="#5E9194"/>
<path id="Vector_16" d="M436 94C416.617 94 397.67 99.7476 381.554 110.516C365.438 121.284 352.877 136.59 345.46 154.497C338.042 172.404 336.102 192.109 339.883 211.119C343.664 230.129 352.998 247.591 366.704 261.296C380.409 275.002 397.871 284.336 416.881 288.117C435.891 291.898 455.596 289.958 473.503 282.54C491.41 275.123 506.716 262.562 517.484 246.446C528.252 230.33 534 211.383 534 192C534 179.13 531.465 166.387 526.54 154.497C521.615 142.607 514.397 131.804 505.296 122.704C496.196 113.603 485.393 106.385 473.503 101.46C461.613 96.5348 448.87 94 436 94V94ZM486.616 211.78C486.593 219.44 483.54 226.78 478.124 232.196C472.708 237.613 465.368 240.665 457.708 240.688H416.412C408.752 240.665 401.413 237.613 395.996 232.196C390.58 226.78 387.527 219.44 387.505 211.78V170.484C387.527 162.824 390.58 155.485 395.996 150.068C401.413 144.652 408.752 141.599 416.412 141.577H457.709C465.368 141.599 472.708 144.652 478.124 150.068C483.541 155.485 486.593 162.824 486.616 170.484L486.616 211.78Z" fill="#5E9194"/>
<path id="Vector_17" d="M437 207C445.837 207 453 199.837 453 191C453 182.163 445.837 175 437 175C428.163 175 421 182.163 421 191C421 199.837 428.163 207 437 207Z" fill="#5E9194"/>
<path id="Vector_18" d="M323 372C303.617 372 284.67 377.748 268.554 388.516C252.438 399.284 239.877 414.59 232.46 432.497C225.042 450.404 223.102 470.109 226.883 489.119C230.664 508.129 239.998 525.591 253.704 539.296C267.409 553.002 284.871 562.336 303.881 566.117C322.891 569.898 342.596 567.958 360.503 560.54C378.41 553.123 393.716 540.562 404.484 524.446C415.252 508.33 421 489.383 421 470C421 457.13 418.465 444.387 413.54 432.497C408.615 420.607 401.397 409.804 392.296 400.704C383.196 391.603 372.393 384.385 360.503 379.46C348.613 374.535 335.87 372 323 372V372ZM353.901 431.299H341.356C332.791 431.299 331.156 435.35 331.156 441.321V454.008H351.555L348.89 473.909H331.156V527.927H308.412V473.909H292.1V454.008H308.412V439.295C308.412 421.668 320.637 412.073 336.381 412.073C343.915 412.073 352.017 412.641 353.901 412.89L353.901 431.299Z" fill="#5E9194"/>
</g>
<defs>
<linearGradient id="paint0_linear" x1="239.766" y1="662.28" x2="522.664" y2="-10.2932" gradientUnits="userSpaceOnUse">
<stop stop-color="#808080" stop-opacity="0.25"/>
<stop offset="0.54" stop-color="#808080" stop-opacity="0.12"/>
<stop offset="1" stop-color="#808080" stop-opacity="0.1"/>
</linearGradient>
<linearGradient id="paint1_linear" x1="118458" y1="84962.8" x2="118458" y2="45626.9" gradientUnits="userSpaceOnUse">
<stop stop-color="#808080" stop-opacity="0.25"/>
<stop offset="0.54" stop-color="#808080" stop-opacity="0.12"/>
<stop offset="1" stop-color="#808080" stop-opacity="0.1"/>
</linearGradient>
<linearGradient id="paint2_linear" x1="125375" y1="79155.6" x2="125375" y2="44971.3" gradientUnits="userSpaceOnUse">
<stop stop-color="#808080" stop-opacity="0.25"/>
<stop offset="0.54" stop-color="#808080" stop-opacity="0.12"/>
<stop offset="1" stop-color="#808080" stop-opacity="0.1"/>
</linearGradient>
</defs>
</svg>
