<svg width="921" height="1047" viewBox="0 0 921 1047" fill="none" xmlns="http://www.w3.org/2000/svg">
<path id="bg - designed by tranmautritam" fill-rule="evenodd" clip-rule="evenodd" d="M917.11 29.5765C923.214 41.5556 923.214 57.2371 923.214 88.6V957.4C923.214 988.763 923.214 1004.44 917.11 1016.42C911.741 1026.96 903.174 1035.53 892.637 1040.9C880.658 1047 864.977 1047 833.614 1047H277.814C257.738 1047 244.087 1047 233.721 1045.4L233.558 1047H56.0168C20.9846 1047 -5.44672 1015.2 0.96167 980.756L175.122 44.756C180.057 18.234 203.2 -1 230.177 -1H277.814H340.214H833.614C864.977 -1 880.658 -1 892.637 5.10364C903.174 10.4725 911.741 19.0395 917.11 29.5765Z" fill="#F4EFE4"/>
</svg>
