<svg width="362" height="652" viewBox="0 0 362 652" fill="none" xmlns="http://www.w3.org/2000/svg">
<g id="Group" opacity="0.5">
<path id="Vector" opacity="0.5" d="M346.67 0.989988L14.17 1.79999C12.3753 1.80392 10.5989 2.16147 8.94247 2.85222C7.28602 3.54296 5.78191 4.55334 4.51611 5.82564C3.25032 7.09793 2.24765 8.60719 1.5654 10.2672C0.883148 11.9271 0.534716 13.7053 0.539976 15.5L2.04995 637.39C2.05389 639.185 2.41146 640.961 3.1022 642.617C3.79294 644.274 4.80333 645.778 6.07562 647.044C7.34792 648.31 8.85718 649.312 10.5171 649.995C12.1771 650.677 13.9553 651.025 15.75 651.02L348.25 650.21C350.046 650.206 351.823 649.848 353.48 649.157C355.137 648.465 356.641 647.454 357.907 646.181C359.173 644.907 360.176 643.397 360.857 641.736C361.539 640.075 361.887 638.296 361.88 636.5L360.37 14.61C360.365 12.8161 360.006 11.0409 359.315 9.38556C358.624 7.73026 357.613 6.22733 356.341 4.9626C355.069 3.69786 353.56 2.69609 351.9 2.01446C350.241 1.33284 348.464 0.984727 346.67 0.989988V0.989988Z" fill="url(#paint0_linear)"/>
</g>
<defs>
<linearGradient id="paint0_linear" x1="39.7661" y1="662.28" x2="322.664" y2="-10.2932" gradientUnits="userSpaceOnUse">
<stop stop-color="#808080" stop-opacity="0.25"/>
<stop offset="0.54" stop-color="#808080" stop-opacity="0.12"/>
<stop offset="1" stop-color="#808080" stop-opacity="0.1"/>
</linearGradient>
</defs>
</svg>
