<svg width="217" height="129" viewBox="0 0 217 129" fill="none" xmlns="http://www.w3.org/2000/svg">
<g id="image-icon">
<path id="Vector" d="M209.563 128.066H6.98541C5.13342 128.064 3.35791 127.327 2.04836 126.018C0.7388 124.708 0.00214905 122.933 0 121.081V6.98541C0.00215169 5.13342 0.738801 3.35792 2.04836 2.04837C3.35791 0.738816 5.13342 0.00215169 6.98541 0H209.563C211.415 0.00209359 213.19 0.738742 214.5 2.04831C215.809 3.35788 216.546 5.13341 216.548 6.98541V121.081C216.546 122.933 215.809 124.708 214.5 126.018C213.19 127.327 211.415 128.064 209.563 128.066V128.066ZM6.98541 1.55234C5.54496 1.55395 4.16397 2.12686 3.14542 3.14542C2.12686 4.16397 1.55392 5.54496 1.55231 6.98541V121.081C1.55392 122.521 2.12686 123.902 3.14542 124.921C4.16397 125.939 5.54496 126.512 6.98541 126.514H209.563C211.003 126.512 212.384 125.939 213.403 124.921C214.421 123.902 214.994 122.521 214.996 121.081V6.98541C214.994 5.54498 214.421 4.16405 213.403 3.14551C212.384 2.12697 211.003 1.55402 209.563 1.55234H6.98541Z" fill="#3F3D56"/>
<path id="Vector_2" d="M185.39 102.276L151.387 43.381C151.175 43.0128 150.869 42.7072 150.501 42.4946C150.133 42.2821 149.715 42.1702 149.29 42.1702C148.865 42.1702 148.448 42.2821 148.079 42.4946C147.711 42.7072 147.406 43.0128 147.193 43.381L126.442 79.3228L95.5066 25.7406C95.2341 25.2687 94.8422 24.8768 94.3702 24.6043C93.8982 24.3318 93.3629 24.1884 92.8179 24.1884C92.2729 24.1884 91.7375 24.3318 91.2656 24.6043C90.7936 24.8768 90.4017 25.2687 90.1292 25.7406L46.533 101.251C46.2605 101.723 46.1171 102.259 46.1171 102.804C46.1171 103.349 46.2605 103.884 46.533 104.356C46.8055 104.828 47.1974 105.22 47.6694 105.492C48.1413 105.765 48.6767 105.908 49.2217 105.908H183.293C183.718 105.908 184.136 105.796 184.504 105.584C184.872 105.371 185.178 105.066 185.39 104.698C185.603 104.329 185.715 103.912 185.715 103.487C185.715 103.062 185.603 102.644 185.39 102.276V102.276Z" fill="#D6B7A0"/>
</g>
</svg>
