<svg viewBox="0 0 116 116" fill="none" xmlns="http://www.w3.org/2000/svg">
<g id="add-button">
<path id="Vector" d="M57.6589 115.318C89.503 115.318 115.318 89.503 115.318 57.6589C115.318 25.8147 89.503 0 57.6589 0C25.8148 0 0 25.8147 0 57.6589C0 89.503 25.8148 115.318 57.6589 115.318Z" fill="#D6B7A0"/>
<path id="Vector_2" d="M33.6346 53.8541C32.6255 53.8541 31.6577 54.255 30.9442 54.9685C30.2306 55.6821 29.8297 56.6499 29.8297 57.659C29.8297 58.6682 30.2306 59.636 30.9442 60.3495C31.6577 61.0631 32.6255 61.464 33.6346 61.464H53.8544V81.6832C53.8544 82.6923 54.2552 83.66 54.9688 84.3735C55.6823 85.087 56.65 85.4879 57.6591 85.4879C58.6681 85.4879 59.6358 85.087 60.3494 84.3735C61.0629 83.66 61.4637 82.6923 61.4637 81.6832V61.464H81.6835C82.6926 61.464 83.6604 61.0631 84.374 60.3495C85.0875 59.636 85.4884 58.6682 85.4884 57.659C85.4884 56.6499 85.0875 55.6821 84.374 54.9686C83.6604 54.255 82.6926 53.8541 81.6835 53.8541H61.4637V33.6344C61.4637 32.6253 61.0629 31.6576 60.3494 30.944C59.6358 30.2305 58.6681 29.8297 57.6591 29.8297C56.65 29.8297 55.6823 30.2305 54.9688 30.944C54.2552 31.6576 53.8544 32.6253 53.8544 33.6344V53.8541H33.6346Z" fill="white"/>
</g>
</svg>
