<svg width="980" height="595" viewBox="0 0 980 595" fill="none" xmlns="http://www.w3.org/2000/svg">
<g id="undraw_remote_design_team_0hp4 1" clip-path="url(#clip0)">
<path id="Vector" d="M910.106 0H25.1061C23.1172 0.000720917 21.2099 0.791128 19.8036 2.19749C18.3972 3.60386 17.6068 5.5111 17.6061 7.5V464.5C17.6068 466.489 18.3972 468.396 19.8036 469.803C21.2099 471.209 23.1172 471.999 25.1061 472H910.106C911.28 471.995 912.437 471.716 913.484 471.185C914.531 470.654 915.439 469.885 916.136 468.94C916.537 468.418 916.857 467.838 917.086 467.22C917.433 466.355 917.609 465.432 917.606 464.5V7.5C917.605 5.51111 916.815 3.60388 915.409 2.19751C914.002 0.791144 912.095 0.000731519 910.106 0V0ZM914.606 464.5C914.604 465.693 914.13 466.836 913.286 467.68C912.443 468.523 911.299 468.998 910.106 469H25.1061C23.9132 468.998 22.7696 468.523 21.9261 467.68C21.0826 466.836 20.6079 465.693 20.6061 464.5V7.5C20.6079 6.30708 21.0825 5.16352 21.9261 4.31999C22.7696 3.47647 23.9132 3.00179 25.1061 3H910.106C911.299 3.00179 912.443 3.47647 913.286 4.31999C914.13 5.16352 914.604 6.30708 914.606 7.5V464.5Z" fill="#E6E6E6"/>
<path id="Path 40" d="M207.164 145.571C206.213 145.586 205.306 145.975 204.639 146.653C203.973 147.331 203.599 148.244 203.599 149.195C203.599 150.146 203.973 151.059 204.639 151.737C205.306 152.415 206.213 152.804 207.164 152.82H378.042C379.001 152.833 379.927 152.465 380.616 151.797C381.305 151.128 381.701 150.214 381.716 149.255C381.732 148.295 381.367 147.368 380.7 146.678C380.034 145.987 379.12 145.589 378.161 145.571C378.121 145.57 378.081 145.57 378.042 145.571H207.164Z" fill="#E6E6E6"/>
<path id="Path 40_2" d="M207.164 112.571C206.213 112.586 205.306 112.975 204.639 113.653C203.973 114.331 203.599 115.244 203.599 116.195C203.599 117.146 203.973 118.059 204.639 118.737C205.306 119.415 206.213 119.804 207.164 119.82H256.042C257.001 119.833 257.927 119.465 258.616 118.797C259.305 118.128 259.701 117.214 259.716 116.255C259.732 115.295 259.367 114.368 258.7 113.678C258.034 112.987 257.12 112.589 256.161 112.571C256.121 112.57 256.081 112.57 256.042 112.571H207.164Z" fill="#E6E6E6"/>
<path id="Path 40_3" d="M207.164 179.571C206.213 179.586 205.306 179.975 204.639 180.653C203.973 181.331 203.599 182.244 203.599 183.195C203.599 184.146 203.973 185.059 204.639 185.737C205.306 186.415 206.213 186.804 207.164 186.82H378.042C379.001 186.833 379.927 186.465 380.616 185.797C381.305 185.128 381.701 184.214 381.716 183.255C381.732 182.295 381.367 181.368 380.7 180.678C380.034 179.987 379.12 179.589 378.161 179.571C378.121 179.57 378.081 179.57 378.042 179.571H207.164Z" fill="#E6E6E6"/>
<path id="Path 40_4" d="M725.049 145.571C725.999 145.586 726.906 145.975 727.573 146.653C728.24 147.331 728.613 148.244 728.613 149.195C728.613 150.146 728.24 151.059 727.573 151.737C726.906 152.415 725.999 152.804 725.049 152.82H554.171C553.694 152.829 553.22 152.744 552.776 152.569C552.333 152.395 551.927 152.135 551.584 151.804C551.241 151.472 550.967 151.077 550.777 150.639C550.587 150.202 550.485 149.732 550.477 149.255C550.47 148.778 550.556 148.304 550.731 147.861C550.907 147.418 551.168 147.013 551.5 146.671C551.832 146.329 552.228 146.056 552.666 145.867C553.104 145.678 553.575 145.577 554.052 145.571C554.091 145.57 554.131 145.57 554.171 145.571H725.049Z" fill="#E6E6E6"/>
<path id="Path 40_5" d="M725.049 112.571C725.999 112.586 726.906 112.975 727.573 113.653C728.24 114.331 728.613 115.244 728.613 116.195C728.613 117.146 728.24 118.059 727.573 118.737C726.906 119.415 725.999 119.804 725.049 119.82H676.171C675.211 119.833 674.285 119.465 673.596 118.797C672.907 118.128 672.512 117.214 672.496 116.255C672.48 115.295 672.846 114.368 673.512 113.678C674.179 112.987 675.092 112.589 676.052 112.571C676.091 112.57 676.131 112.57 676.171 112.571H725.049Z" fill="#E6E6E6"/>
<path id="Path 40_6" d="M725.049 179.571C725.999 179.586 726.906 179.975 727.573 180.653C728.24 181.331 728.613 182.244 728.613 183.195C728.613 184.146 728.24 185.059 727.573 185.737C726.906 186.415 725.999 186.804 725.049 186.82H554.171C553.694 186.829 553.22 186.744 552.776 186.569C552.333 186.395 551.927 186.135 551.584 185.804C551.241 185.472 550.967 185.077 550.777 184.639C550.587 184.202 550.485 183.732 550.477 183.255C550.47 182.778 550.556 182.304 550.731 181.861C550.907 181.418 551.168 181.013 551.5 180.671C551.832 180.329 552.228 180.056 552.666 179.867C553.104 179.678 553.575 179.577 554.052 179.571C554.091 179.57 554.131 179.57 554.171 179.571H725.049Z" fill="#E6E6E6"/>
<path id="Path 78" d="M436.432 319.533H201.594C197.016 319.533 193.306 316.89 193.301 313.633V262.591C193.306 259.334 197.016 256.691 201.594 256.691H436.432C441.01 256.691 444.72 259.334 444.725 262.591V313.632C444.721 316.889 441.01 319.529 436.432 319.533Z" fill="#E6E6E6"/>
<path id="Vector_2" d="M162.434 195.96C162.444 202.563 160.928 209.08 158.004 215C157.674 215.68 157.324 216.34 156.954 217H81.7837C81.4137 216.34 81.0636 215.68 80.7336 215C77.8638 209.181 76.3457 202.789 76.2926 196.301C76.2395 189.813 77.6529 183.397 80.4271 177.532C83.2014 171.667 87.2649 166.504 92.3141 162.43C97.3634 158.355 103.268 155.474 109.587 154.001C115.906 152.529 122.475 152.503 128.806 153.925C135.136 155.348 141.063 158.182 146.144 162.216C151.226 166.251 155.33 171.381 158.151 177.224C160.971 183.067 162.435 189.472 162.434 195.96V195.96Z" fill="#2F2E41"/>
<path id="Vector_3" d="M120.46 199.771C128.589 199.771 135.179 193.181 135.179 185.052C135.179 176.923 128.589 170.333 120.46 170.333C112.331 170.333 105.741 176.923 105.741 185.052C105.741 193.181 112.331 199.771 120.46 199.771Z" fill="white"/>
<path id="Vector_4" d="M120.46 189.959C123.17 189.959 125.366 187.762 125.366 185.052C125.366 182.343 123.17 180.146 120.46 180.146C117.75 180.146 115.554 182.343 115.554 185.052C115.554 187.762 117.75 189.959 120.46 189.959Z" fill="#3F3D56"/>
<path id="Vector_5" d="M77.5929 155.904C74.1154 140.33 85.2315 124.594 102.421 120.755C119.611 116.917 136.366 126.43 139.843 142.004C143.321 157.578 131.928 163.322 114.738 167.16C97.5484 170.998 81.0704 171.478 77.5929 155.904Z" fill="#D6B7A0"/>
<path id="Vector_6" d="M176.606 83H52.6061C51.2801 83.0005 50.0087 83.5274 49.0711 84.465C48.1335 85.4026 47.6066 86.6741 47.6061 88V212C47.6066 213.326 48.1335 214.597 49.0711 215.535C50.0087 216.473 51.2801 217 52.6061 217H176.606C177.932 217 179.204 216.473 180.141 215.535C181.079 214.597 181.606 213.326 181.606 212V88C181.606 86.6741 181.079 85.4026 180.141 84.465C179.204 83.5274 177.932 83.0005 176.606 83V83ZM179.606 212C179.604 212.795 179.287 213.557 178.725 214.119C178.163 214.681 177.401 214.998 176.606 215H52.6061C51.8111 214.998 51.0494 214.681 50.4873 214.119C49.9252 213.557 49.6084 212.795 49.6061 212V88C49.6084 87.2051 49.9252 86.4433 50.4873 85.8812C51.0494 85.3191 51.8111 85.0023 52.6061 85H176.606C177.401 85.0023 178.163 85.3191 178.725 85.8812C179.287 86.4433 179.604 87.2051 179.606 88V212Z" fill="#3F3D56"/>
<path id="Vector_7" d="M883.606 83H759.606C758.28 83.0005 757.009 83.5274 756.071 84.465C755.134 85.4026 754.607 86.6741 754.606 88V212C754.607 213.326 755.134 214.597 756.071 215.535C757.009 216.473 758.28 217 759.606 217H883.606C884.932 217 886.204 216.473 887.141 215.535C888.079 214.597 888.606 213.326 888.606 212V88C888.606 86.6741 888.079 85.4026 887.141 84.465C886.204 83.5274 884.932 83.0005 883.606 83V83ZM886.606 212C886.604 212.795 886.287 213.557 885.725 214.119C885.163 214.681 884.401 214.998 883.606 215H759.606C758.811 214.998 758.049 214.681 757.487 214.119C756.925 213.557 756.608 212.795 756.606 212V88C756.608 87.2051 756.925 86.4433 757.487 85.8812C758.049 85.3191 758.811 85.0023 759.606 85H883.606C884.401 85.0023 885.163 85.3191 885.725 85.8812C886.287 86.4433 886.604 87.2051 886.606 88V212Z" fill="#3F3D56"/>
<path id="Vector_8" d="M917.606 38.3301H20.6061V40.3301H917.606V38.3301Z" fill="#E6E6E6"/>
<path id="Vector_9" d="M42.6061 31C47.5766 31 51.6061 26.9706 51.6061 22C51.6061 17.0294 47.5766 13 42.6061 13C37.6355 13 33.6061 17.0294 33.6061 22C33.6061 26.9706 37.6355 31 42.6061 31Z" fill="#E6E6E6"/>
<path id="Vector_10" d="M71.6061 31C76.5766 31 80.6061 26.9706 80.6061 22C80.6061 17.0294 76.5766 13 71.6061 13C66.6355 13 62.6061 17.0294 62.6061 22C62.6061 26.9706 66.6355 31 71.6061 31Z" fill="#E6E6E6"/>
<path id="Vector_11" d="M100.606 31C105.577 31 109.606 26.9706 109.606 22C109.606 17.0294 105.577 13 100.606 13C95.6355 13 91.6061 17.0294 91.6061 22C91.6061 26.9706 95.6355 31 100.606 31Z" fill="#E6E6E6"/>
<path id="Vector_12" d="M178.355 233.074C180.649 230.245 175.204 222.028 166.193 214.721C157.182 207.413 148.018 203.783 145.724 206.611C143.43 209.44 148.875 217.657 157.886 224.964C166.896 232.272 176.061 235.902 178.355 233.074Z" fill="#2F2E41"/>
<path id="Vector_13" d="M89.3547 196.074C91.6487 193.245 86.2037 185.028 77.1929 177.721C68.1821 170.413 59.0177 166.783 56.7237 169.611C54.4297 172.44 59.8748 180.657 68.8856 187.964C77.8964 195.272 87.0607 198.902 89.3547 196.074Z" fill="#2F2E41"/>
<path id="Path 78_2" d="M401.59 287.651H166.752C162.174 287.651 158.464 285.008 158.459 281.751V230.709C158.464 227.452 162.174 224.809 166.752 224.809H401.59C406.168 224.809 409.878 227.452 409.883 230.709V281.75C409.879 285.007 406.168 287.647 401.59 287.651ZM166.752 227.167C164.005 227.167 161.779 228.753 161.776 230.707V281.748C161.776 283.702 164.005 285.286 166.752 285.288H401.59C404.337 285.288 406.563 283.702 406.566 281.748V230.709C406.566 228.755 404.337 227.171 401.59 227.169L166.752 227.167Z" fill="#3F3D56"/>
<path id="Vector_14" d="M201.124 274.82C211.617 274.82 220.124 266.314 220.124 255.82C220.124 245.327 211.617 236.82 201.124 236.82C190.63 236.82 182.124 245.327 182.124 255.82C182.124 266.314 190.63 274.82 201.124 274.82Z" fill="#D6B7A0"/>
<path id="Path 40_7" d="M242.164 242.196C241.213 242.211 240.306 242.6 239.639 243.278C238.973 243.956 238.599 244.869 238.599 245.82C238.599 246.771 238.973 247.684 239.639 248.362C240.306 249.04 241.213 249.429 242.164 249.445H378.042C379.001 249.458 379.927 249.09 380.616 248.422C381.305 247.754 381.701 246.839 381.716 245.88C381.732 244.92 381.367 243.993 380.7 243.303C380.034 242.612 379.12 242.214 378.161 242.196C378.121 242.195 378.081 242.195 378.042 242.196H242.164Z" fill="#3F3D56"/>
<path id="Path 40_8" d="M242.164 262.196C241.213 262.211 240.306 262.6 239.639 263.278C238.973 263.956 238.599 264.869 238.599 265.82C238.599 266.771 238.973 267.684 239.639 268.362C240.306 269.04 241.213 269.429 242.164 269.445H378.042C379.001 269.458 379.927 269.09 380.616 268.422C381.305 267.754 381.701 266.839 381.716 265.88C381.732 264.92 381.367 263.993 380.7 263.303C380.034 262.612 379.12 262.214 378.161 262.196C378.121 262.195 378.081 262.195 378.042 262.196H242.164Z" fill="#3F3D56"/>
<path id="Vector_15" d="M496.5 235.385C495.307 235.386 494.163 235.86 493.319 236.704C492.476 237.548 492.001 238.692 492 239.885V333.885C492.001 335.078 492.476 336.221 493.319 337.065C494.163 337.909 495.307 338.383 496.5 338.385H861.5C862.693 338.383 863.837 337.909 864.681 337.065C865.524 336.221 865.999 335.078 866 333.885V239.885C865.999 238.692 865.524 237.548 864.681 236.704C863.837 235.86 862.693 235.386 861.5 235.385H496.5Z" fill="#D6B7A0"/>
<path id="Vector_16" d="M861.5 594.385H496.5C494.512 594.382 492.605 593.592 491.199 592.185C489.793 590.779 489.002 588.873 489 586.885V240.885C489.002 238.896 489.793 236.99 491.199 235.584C492.605 234.178 494.512 233.387 496.5 233.385H861.5C863.488 233.387 865.395 234.178 866.801 235.584C868.207 236.99 868.998 238.896 869 240.885V586.885C868.998 588.873 868.207 590.779 866.801 592.186C865.395 593.592 863.488 594.382 861.5 594.385V594.385ZM496.5 236.385C495.307 236.386 494.163 236.86 493.319 237.704C492.476 238.548 492.001 239.692 492 240.885V586.885C492.001 588.078 492.476 589.221 493.319 590.065C494.163 590.909 495.307 591.383 496.5 591.385H861.5C862.693 591.383 863.837 590.909 864.681 590.065C865.524 589.222 865.999 588.078 866 586.885V240.885C865.999 239.692 865.524 238.548 864.681 237.704C863.837 236.86 862.693 236.386 861.5 236.385H496.5Z" fill="#3F3D56"/>
<path id="Vector_17" d="M761.845 377.7H652.346V379.7H761.845C767.236 379.7 772.407 381.842 776.219 385.654C780.031 389.466 782.172 394.636 782.172 400.027C782.172 405.418 780.031 410.588 776.219 414.4C772.407 418.212 767.236 420.354 761.845 420.354H596.155C590.764 420.354 585.593 418.212 581.781 414.4C577.969 410.588 575.828 405.418 575.828 400.027C575.828 394.636 577.969 389.466 581.781 385.654C585.593 381.842 590.764 379.7 596.155 379.7H602.346V377.7H596.155C590.233 377.7 584.554 380.052 580.367 384.24C576.18 388.427 573.828 394.105 573.828 400.027C573.828 405.948 576.18 411.627 580.367 415.814C584.554 420.001 590.233 422.354 596.155 422.354H761.845C767.767 422.354 773.446 420.001 777.633 415.814C781.82 411.627 784.172 405.948 784.172 400.027C784.172 394.105 781.82 388.427 777.633 384.24C773.446 380.052 767.767 377.7 761.845 377.7V377.7Z" fill="#E6E6E6"/>
<path id="Vector_18" d="M761.845 446.7H652.346V448.7H761.845C767.236 448.7 772.407 450.842 776.219 454.654C780.031 458.466 782.172 463.636 782.172 469.027C782.172 474.418 780.031 479.588 776.219 483.4C772.407 487.212 767.236 489.354 761.845 489.354H596.155C590.764 489.354 585.593 487.212 581.781 483.4C577.969 479.588 575.828 474.418 575.828 469.027C575.828 463.636 577.969 458.466 581.781 454.654C585.593 450.842 590.764 448.7 596.155 448.7H602.346V446.7H596.155C590.233 446.7 584.554 449.052 580.367 453.24C576.18 457.427 573.828 463.105 573.828 469.027C573.828 474.948 576.18 480.627 580.367 484.814C584.554 489.001 590.233 491.354 596.155 491.354H761.845C767.767 491.354 773.446 489.001 777.633 484.814C781.82 480.627 784.172 474.948 784.172 469.027C784.172 463.105 781.82 457.427 777.633 453.24C773.446 449.052 767.767 446.7 761.845 446.7V446.7Z" fill="#E6E6E6"/>
<path id="Vector_19" d="M761.845 515.7H652.346V517.7H761.845C767.236 517.7 772.407 519.842 776.219 523.654C780.031 527.466 782.172 532.636 782.172 538.027C782.172 543.418 780.031 548.588 776.219 552.4C772.407 556.212 767.236 558.353 761.845 558.353H596.155C590.764 558.353 585.593 556.212 581.781 552.4C577.969 548.588 575.828 543.418 575.828 538.027C575.828 532.636 577.969 527.466 581.781 523.654C585.593 519.842 590.764 517.7 596.155 517.7H602.346V515.7H596.155C590.233 515.7 584.554 518.052 580.367 522.239C576.18 526.427 573.828 532.105 573.828 538.027C573.828 543.948 576.18 549.627 580.367 553.814C584.554 558.001 590.233 560.353 596.155 560.353H761.845C767.767 560.353 773.446 558.001 777.633 553.814C781.82 549.627 784.172 543.948 784.172 538.027C784.172 532.105 781.82 526.427 777.633 522.239C773.446 518.052 767.767 515.7 761.845 515.7V515.7Z" fill="#E6E6E6"/>
<path id="Path 40_9" d="M614.706 372.416C613.146 372.442 611.658 373.08 610.564 374.192C609.47 375.305 608.857 376.802 608.857 378.363C608.857 379.923 609.47 381.421 610.564 382.533C611.658 383.645 613.146 384.283 614.706 384.309H640.792C642.368 384.333 643.889 383.73 645.021 382.634C646.152 381.537 646.803 380.036 646.829 378.46C646.855 376.884 646.254 375.363 645.159 374.229C644.063 373.096 642.563 372.444 640.987 372.416C640.922 372.415 640.857 372.415 640.792 372.416H614.706Z" fill="#3F3D56"/>
<path id="Path 40_10" d="M614.706 442.416C613.146 442.442 611.658 443.08 610.564 444.192C609.47 445.305 608.857 446.802 608.857 448.363C608.857 449.923 609.47 451.421 610.564 452.533C611.658 453.645 613.146 454.283 614.706 454.309H640.792C642.368 454.333 643.889 453.73 645.021 452.634C646.152 451.537 646.803 450.036 646.829 448.46C646.855 446.884 646.254 445.363 645.159 444.229C644.063 443.096 642.563 442.444 640.987 442.416C640.922 442.415 640.857 442.415 640.792 442.416H614.706Z" fill="#3F3D56"/>
<path id="Path 40_11" d="M614.706 510.416C613.146 510.442 611.658 511.08 610.564 512.192C609.47 513.305 608.857 514.802 608.857 516.363C608.857 517.923 609.47 519.421 610.564 520.533C611.658 521.645 613.146 522.283 614.706 522.309H640.792C641.573 522.322 642.349 522.182 643.077 521.895C643.804 521.609 644.467 521.182 645.029 520.638C645.591 520.095 646.04 519.447 646.351 518.73C646.662 518.013 646.829 517.242 646.842 516.46C646.855 515.679 646.713 514.903 646.426 514.176C646.139 513.449 645.711 512.786 645.167 512.225C644.623 511.664 643.974 511.215 643.257 510.905C642.54 510.594 641.768 510.428 640.987 510.416C640.922 510.415 640.857 510.415 640.792 510.416H614.706Z" fill="#3F3D56"/>
<path id="Path 40_12" d="M604.359 394.081C602.799 394.106 601.312 394.744 600.218 395.856C599.124 396.969 598.51 398.467 598.51 400.027C598.51 401.587 599.124 403.085 600.218 404.197C601.312 405.309 602.799 405.947 604.359 405.973H753.445C755.021 405.997 756.542 405.395 757.674 404.298C758.806 403.201 759.456 401.7 759.482 400.124C759.508 398.548 758.907 397.027 757.812 395.894C756.717 394.76 755.216 394.108 753.64 394.081C753.575 394.08 753.51 394.08 753.445 394.081H604.359Z" fill="#E6E6E6"/>
<path id="Path 40_13" d="M604.359 463.081C602.799 463.106 601.312 463.744 600.218 464.856C599.124 465.969 598.51 467.467 598.51 469.027C598.51 470.587 599.124 472.085 600.218 473.197C601.312 474.309 602.799 474.947 604.359 474.973H753.445C755.021 474.997 756.542 474.395 757.674 473.298C758.806 472.201 759.456 470.7 759.482 469.124C759.508 467.548 758.907 466.027 757.812 464.894C756.717 463.76 755.216 463.108 753.64 463.081C753.575 463.08 753.51 463.08 753.445 463.081H604.359Z" fill="#E6E6E6"/>
<path id="Path 40_14" d="M604.359 532.081C602.799 532.106 601.312 532.744 600.218 533.856C599.124 534.969 598.51 536.467 598.51 538.027C598.51 539.587 599.124 541.085 600.218 542.197C601.312 543.309 602.799 543.947 604.359 543.973H753.445C755.021 543.997 756.542 543.395 757.674 542.298C758.806 541.201 759.456 539.7 759.482 538.124C759.508 536.548 758.907 535.027 757.812 533.894C756.717 532.76 755.216 532.108 753.64 532.081C753.575 532.08 753.51 532.08 753.445 532.081H604.359Z" fill="#E6E6E6"/>
<path id="Vector_20" d="M567.916 286.88C567.916 291.627 566.509 296.267 563.871 300.214C561.234 304.16 557.486 307.237 553.101 309.053C548.715 310.87 543.889 311.345 539.234 310.419C534.578 309.493 530.302 307.207 526.946 303.851C523.589 300.494 521.303 296.218 520.377 291.562C519.451 286.907 519.927 282.081 521.743 277.696C523.56 273.31 526.636 269.562 530.582 266.925C534.529 264.288 539.169 262.88 543.916 262.88C547.072 262.866 550.199 263.478 553.117 264.679C556.034 265.881 558.685 267.648 560.917 269.879C563.148 272.111 564.915 274.762 566.117 277.68C567.318 280.598 567.93 283.724 567.916 286.88V286.88Z" fill="white"/>
<path id="Path 40_15" d="M586.957 267.939C585.397 267.964 583.91 268.602 582.816 269.714C581.721 270.827 581.108 272.324 581.108 273.885C581.108 275.445 581.721 276.943 582.816 278.055C583.91 279.167 585.397 279.805 586.957 279.831H736.043C736.824 279.844 737.601 279.704 738.328 279.417C739.055 279.131 739.718 278.704 740.28 278.16C740.842 277.617 741.291 276.969 741.602 276.252C741.914 275.535 742.08 274.764 742.093 273.982C742.106 273.201 741.965 272.425 741.677 271.698C741.39 270.971 740.962 270.308 740.418 269.747C739.875 269.186 739.226 268.737 738.508 268.427C737.791 268.116 737.02 267.951 736.238 267.939C736.173 267.937 736.108 267.937 736.043 267.939H586.957Z" fill="white"/>
<path id="Path 40_16" d="M586.957 293.939C585.397 293.964 583.91 294.602 582.816 295.714C581.721 296.827 581.108 298.324 581.108 299.885C581.108 301.445 581.721 302.943 582.816 304.055C583.91 305.167 585.397 305.805 586.957 305.831H832.043C832.824 305.844 833.601 305.704 834.328 305.417C835.055 305.131 835.718 304.704 836.28 304.16C836.842 303.617 837.291 302.969 837.602 302.252C837.914 301.535 838.08 300.764 838.093 299.982C838.106 299.201 837.965 298.425 837.677 297.698C837.39 296.971 836.962 296.308 836.418 295.747C835.875 295.186 835.226 294.737 834.508 294.427C833.791 294.116 833.02 293.951 832.238 293.939C832.173 293.937 832.108 293.937 832.043 293.939H586.957Z" fill="white"/>
<path id="Vector_21" d="M950.486 403.39C949.881 425.849 946.118 448.111 939.306 469.52C939.156 470.01 938.986 470.5 938.826 471H897.126C897.166 470.56 897.216 470.06 897.256 469.52C897.266 469.35 897.286 469.18 897.296 469H910.106C911.299 468.998 912.443 468.524 913.286 467.68C914.13 466.836 914.604 465.693 914.606 464.5V243.56C915.586 245.7 916.596 247.92 917.606 250.23C933.496 286.33 952.416 342.69 950.486 403.39Z" fill="#E6E6E6"/>
<path id="Vector_22" d="M947.354 469.517C947.005 470.014 946.642 470.511 946.271 471H914.986C915.223 470.577 915.498 470.081 915.817 469.517C920.985 460.188 936.283 432.299 950.483 403.387C965.744 372.317 979.744 340.068 978.565 328.396C978.929 331.028 989.488 411.277 947.354 469.517Z" fill="#E6E6E6"/>
<path id="Vector_23" d="M14.9823 437.681C15.2874 449.08 17.1969 460.38 20.6545 471.247C20.7335 471.499 20.8163 471.748 20.8991 472H42.0673C42.0448 471.774 42.0221 471.522 41.9996 471.247C40.5881 455.021 32.4506 356.264 42.1802 339.375C41.3296 340.745 13.3412 386.123 14.9823 437.681Z" fill="#E6E6E6"/>
<path id="Vector_24" d="M16.5706 471.247C16.7475 471.499 16.9319 471.752 17.1201 472H33C32.8795 471.785 32.7403 471.533 32.5784 471.247C29.955 466.512 22.1901 452.356 14.9822 437.681C7.23607 421.91 0.129803 405.541 0.728283 399.616C0.543893 400.953 -4.81591 441.685 16.5706 471.247Z" fill="#E6E6E6"/>
<path id="Vector_25" d="M870.295 163.81C881.527 160.909 889.895 155.698 888.984 152.172C888.073 148.646 878.229 148.139 866.996 151.04C855.764 153.942 847.396 159.152 848.307 162.678C849.218 166.205 859.062 166.711 870.295 163.81Z" fill="#2F2E41"/>
<path id="Vector_26" d="M786.735 163.956C791.187 153.243 792.07 143.425 788.707 142.027C785.343 140.63 779.008 148.181 774.556 158.895C770.104 169.608 769.221 179.425 772.584 180.823C775.948 182.221 782.283 174.669 786.735 163.956Z" fill="#2F2E41"/>
<path id="Vector_27" d="M826.532 193.504C849.734 193.504 868.544 174.694 868.544 151.491C868.544 128.288 849.734 109.479 826.532 109.479C803.329 109.479 784.519 128.288 784.519 151.491C784.519 174.694 803.329 193.504 826.532 193.504Z" fill="#2F2E41"/>
<path id="Vector_28" d="M820.41 207.359L807.647 207.419C798.304 198.222 799.686 190.839 807.54 184.552L820.303 184.492C814.419 191.737 812.851 199.257 820.41 207.359Z" fill="#2F2E41"/>
<path id="Vector_29" d="M813.391 213.239C818.464 210.279 821.677 206.336 820.567 204.434C819.456 202.531 814.443 203.389 809.37 206.35C804.297 209.31 801.084 213.253 802.194 215.155C803.304 217.058 808.317 216.2 813.391 213.239Z" fill="#2F2E41"/>
<path id="Vector_30" d="M843.41 207.359L830.647 207.419C821.304 198.222 822.686 190.839 830.54 184.552L843.303 184.492C837.419 191.737 835.851 199.257 843.41 207.359Z" fill="#2F2E41"/>
<path id="Vector_31" d="M836.391 213.239C841.464 210.279 844.677 206.336 843.567 204.434C842.456 202.531 837.443 203.389 832.37 206.35C827.297 209.31 824.084 213.253 825.194 215.155C826.304 217.058 831.317 216.2 836.391 213.239Z" fill="#2F2E41"/>
<path id="Vector_32" d="M825.419 155.219C833.349 155.219 839.777 148.79 839.777 140.86C839.777 132.93 833.349 126.502 825.419 126.502C817.489 126.502 811.06 132.93 811.06 140.86C811.06 148.79 817.489 155.219 825.419 155.219Z" fill="white"/>
<path id="Vector_33" d="M825.5 152.554C828.143 152.554 830.286 150.411 830.286 147.767C830.286 145.124 828.143 142.981 825.5 142.981C822.857 142.981 820.714 145.124 820.714 147.767C820.714 150.411 822.857 152.554 825.5 152.554Z" fill="#3F3D56"/>
<path id="Vector_34" d="M867.103 112.232C870.425 97.024 859.51 81.7235 842.723 78.0571C825.937 74.3908 809.637 83.7471 806.315 98.955C802.994 114.163 814.133 119.714 830.919 123.381C847.705 127.047 863.781 127.44 867.103 112.232Z" fill="#D6B7A0"/>
<path id="Vector_35" d="M835.022 169.799C835.03 171.057 834.79 172.304 834.316 173.469C833.842 174.634 833.143 175.694 832.259 176.589C831.375 177.483 830.323 178.195 829.164 178.683C828.005 179.171 826.761 179.426 825.503 179.433C824.246 179.44 822.999 179.199 821.834 178.724C820.67 178.249 819.61 177.55 818.716 176.665C817.822 175.78 817.111 174.728 816.624 173.568C816.137 172.409 815.883 171.165 815.877 169.907L815.877 169.888C815.853 164.601 820.133 163.487 825.42 163.462C830.706 163.438 834.997 164.513 835.022 169.799Z" fill="white"/>
<path id="Vector_36" d="M560.606 304.07V304.12C556.291 308.303 550.562 310.712 544.554 310.872C538.546 311.031 532.697 308.928 528.166 304.98C528.146 304.68 528.136 304.37 528.136 304.07C528.136 299.764 529.847 295.635 532.891 292.59C535.936 289.545 540.065 287.835 544.371 287.835C548.677 287.835 552.806 289.545 555.851 292.59C558.896 295.635 560.606 299.764 560.606 304.07V304.07Z" fill="#2F2E41"/>
<path id="Vector_37" d="M544.78 305.504C547.845 305.504 550.33 303.019 550.33 299.954C550.33 296.889 547.845 294.404 544.78 294.404C541.715 294.404 539.23 296.889 539.23 299.954C539.23 303.019 541.715 305.504 544.78 305.504Z" fill="white"/>
<path id="Vector_38" d="M544.78 301.804C545.802 301.804 546.63 300.976 546.63 299.954C546.63 298.933 545.802 298.104 544.78 298.104C543.758 298.104 542.93 298.933 542.93 299.954C542.93 300.976 543.758 301.804 544.78 301.804Z" fill="#3F3D56"/>
<path id="Vector_39" d="M528.617 288.964C527.306 283.092 531.497 277.159 537.979 275.711C544.46 274.264 550.777 277.851 552.089 283.723C553.4 289.595 549.104 291.761 542.623 293.208C536.141 294.655 529.929 294.836 528.617 288.964Z" fill="#D6B7A0"/>
<path id="Vector_40" d="M675.789 233.828C673.484 223.764 678.731 212.726 687.564 207.578C691.621 205.213 696.714 203.98 701.158 206.089C702.018 206.419 702.782 206.96 703.379 207.663C703.975 208.365 704.386 209.206 704.573 210.108C704.653 211.083 704.419 212.058 703.905 212.891C703.391 213.723 702.625 214.369 701.717 214.735C700.818 215.205 699.818 215.451 698.803 215.45C697.789 215.449 696.789 215.201 695.891 214.728C694.934 214.081 694.143 213.217 693.582 212.206C693.022 211.195 692.709 210.066 692.668 208.911C692.236 203.168 696.638 198.965 701.717 197.169C708.224 194.867 715.238 195.944 721.974 196.1C728.43 196.236 734.88 195.675 741.215 194.429C755.304 191.66 768.544 185.616 779.865 176.785C781.387 175.599 779.25 173.49 777.744 174.663C766.343 183.479 752.961 189.376 738.762 191.843C731.476 193.009 724.082 193.356 716.719 192.877C709.686 192.536 702.056 192.527 696.023 196.712C691.112 200.12 688.192 206.277 690.314 212.166C690.741 213.47 691.45 214.664 692.389 215.664C693.329 216.664 694.477 217.445 695.752 217.953C696.954 218.348 698.223 218.501 699.485 218.404C700.747 218.307 701.977 217.961 703.104 217.386C704.223 216.89 705.202 216.125 705.953 215.159C706.705 214.192 707.205 213.055 707.409 211.848C707.613 210.641 707.516 209.403 707.124 208.243C706.733 207.083 706.061 206.038 705.167 205.202C701.279 201.579 695.024 201.334 690.248 203.044C679.245 206.984 671.59 218.696 672.277 230.358C672.365 231.795 672.572 233.223 672.896 234.626C673.326 236.507 676.22 235.711 675.789 233.828V233.828Z" fill="#3F3D56"/>
</g>
<defs>
<clipPath id="clip0">
<rect width="980" height="594.385" fill="white"/>
</clipPath>
</defs>
</svg>
