<svg width="421" height="327" viewBox="0 0 421 327" fill="none" xmlns="http://www.w3.org/2000/svg">
<g id="cart">
<path id="Vector" d="M329.326 270.847L261.001 222.521C284.044 200.074 305.003 168.11 325.047 131.97L393.371 180.296C366.07 211.302 342.942 241.732 329.326 270.847Z" fill="#E8DBD2"/>
<path id="Vector_2" d="M329.344 219.396C340.482 219.396 349.51 210.367 349.51 199.23C349.51 188.093 340.482 179.064 329.344 179.064C318.207 179.064 309.179 188.093 309.179 199.23C309.179 210.367 318.207 219.396 329.344 219.396Z" fill="white"/>
<path id="Vector_3" d="M251.135 211.387C242.537 198.805 238.142 183.826 238.578 168.593C238.586 168.242 238.472 167.898 238.256 167.621C238.039 167.345 237.733 167.151 237.39 167.074V164.411H222.563V167.037H222.359C222.159 167.037 221.961 167.077 221.777 167.154C221.592 167.23 221.424 167.343 221.283 167.484C221.142 167.626 221.03 167.793 220.954 167.978C220.878 168.163 220.839 168.361 220.839 168.56C220.839 168.597 220.841 168.634 220.843 168.671C222.011 184.954 218.067 199.557 209.01 212.479C208.489 213.221 208.222 214.113 208.251 215.02L209.872 265.171C209.911 266.29 210.381 267.35 211.183 268.131C211.985 268.912 213.057 269.352 214.177 269.361H247.714C248.846 269.352 249.93 268.901 250.734 268.105C251.539 267.308 252 266.229 252.021 265.097L252.646 216.404C252.664 214.617 252.137 212.867 251.135 211.387V211.387Z" fill="#E8DBD2"/>
<path id="Vector_4" opacity="0.2" d="M234.147 156.998C234.147 158.063 233.724 159.084 232.971 159.837C232.217 160.59 231.196 161.013 230.131 161.013C229.066 161.013 228.045 160.59 227.291 159.837C226.538 159.084 226.115 158.063 226.115 156.998" fill="black"/>
<path id="Vector_5" d="M245.826 228.045H216.635C216.203 228.045 215.776 228.139 215.383 228.319C214.99 228.5 214.641 228.763 214.36 229.091C214.079 229.419 213.872 229.804 213.753 230.219C213.634 230.635 213.607 231.071 213.672 231.498L218.084 260.171H243.414L248.772 231.595C248.853 231.162 248.838 230.717 248.727 230.29C248.617 229.864 248.414 229.467 248.132 229.129C247.851 228.79 247.499 228.517 247.1 228.33C246.702 228.143 246.267 228.045 245.826 228.045V228.045Z" fill="white"/>
<path id="Vector_6" d="M197.017 270.768H113.329C119.18 239.135 117.834 200.936 113.329 159.856H197.017C192.632 200.936 191.322 239.135 197.017 270.768Z" fill="#E8DBD2"/>
<path id="Vector_7" d="M155.677 232.453C166.815 232.453 175.843 223.425 175.843 212.287C175.843 201.15 166.815 192.122 155.677 192.122C144.54 192.122 135.512 201.15 135.512 212.287C135.512 223.425 144.54 232.453 155.677 232.453Z" fill="white"/>
<path id="Vector_8" d="M370.222 278.093H104.35L48.049 11.942H0V0H57.729L114.03 266.15H370.222V278.093Z" fill="#3F3D56"/>
<path id="Vector_9" d="M143.312 326.716C157.446 326.716 168.903 315.258 168.903 301.125C168.903 286.991 157.446 275.533 143.312 275.533C129.178 275.533 117.721 286.991 117.721 301.125C117.721 315.258 129.178 326.716 143.312 326.716Z" fill="#3F3D56"/>
<path id="Vector_10" d="M334.394 326.716C348.528 326.716 359.986 315.258 359.986 301.125C359.986 286.991 348.528 275.533 334.394 275.533C320.261 275.533 308.803 286.991 308.803 301.125C308.803 315.258 320.261 326.716 334.394 326.716Z" fill="#3F3D56"/>
<path id="Vector_11" d="M365.375 272.469H106.696L61.0547 46.9171H408.206C409.978 46.9172 411.728 47.3011 413.337 48.0423C414.946 48.7835 416.375 49.8643 417.526 51.2106C418.678 52.5568 419.524 54.1364 420.006 55.8408C420.489 57.5452 420.597 59.3339 420.322 61.0839L377.489 262.109C377.047 265.001 375.58 267.638 373.357 269.54C371.133 271.442 368.3 272.481 365.375 272.469V272.469ZM109.505 269.057H365.375C367.486 269.066 369.531 268.315 371.135 266.943C372.74 265.57 373.798 263.667 374.117 261.579L416.95 60.5541C417.148 59.2911 417.071 58 416.723 56.7697C416.375 55.5395 415.764 54.3993 414.933 53.4276C414.102 52.4558 413.071 51.6757 411.909 51.1408C410.748 50.6059 409.485 50.3291 408.206 50.3292H65.1967L109.505 269.057Z" fill="#3F3D56"/>
<path id="Vector_12" d="M156.984 271.747L127.094 48.901L130.46 48.345L160.35 271.191L156.984 271.747Z" fill="#3F3D56"/>
<path id="Vector_13" d="M323.183 270.036L319.814 269.49L348.831 48.35L352.2 48.896L323.183 270.036Z" fill="#3F3D56"/>
<path id="Vector_14" d="M243.998 48.6231H240.586V271.469H243.998V48.6231Z" fill="#3F3D56"/>
<path id="Vector_15" d="M78.4847 108.336L78.4764 111.749L408.771 112.548L408.779 109.136L78.4847 108.336Z" fill="#3F3D56"/>
<path id="Vector_16" d="M385.471 213.742L95.3004 215.726L95.3237 219.138L385.495 217.154L385.471 213.742Z" fill="#3F3D56"/>
</g>
</svg>
