<svg  viewBox="0 0 100 131" fill="none" xmlns="http://www.w3.org/2000/svg">
<g id="google">
<path id="Vector" d="M99.15 7.67999H0.289978V130.72H99.15V7.67999Z" fill="url(#paint0_linear)"/>
<path id="Vector_2" d="M90.44 3.35999H0V116.94H90.44V3.35999Z" fill="#E8DBD2"/>
<path id="Vector_3" d="M7.85499 0C3.11499 0 3.11499 7.35999 7.85499 7.35999C12.595 7.35999 12.605 0 7.85499 0Z" fill="#5E9194"/>
<path id="Vector_4" d="M79.855 0C75.115 0 75.115 7.35999 79.855 7.35999C84.595 7.35999 84.575 0 79.855 0Z" fill="#5E9194"/>
<path id="Vector_5" d="M78.64 69.73H71.84V76.5701C71.8298 76.9859 71.6601 77.3819 71.366 77.676C71.0718 77.9701 70.6758 78.1399 70.2599 78.15H69.21C68.7941 78.1399 68.3981 77.9701 68.1039 77.676C67.8098 77.3819 67.6401 76.9859 67.6299 76.5701V69.73H60.79C60.3741 69.7199 59.9781 69.5502 59.684 69.256C59.3898 68.9619 59.2201 68.5659 59.21 68.15V67.1C59.2201 66.6842 59.3898 66.2881 59.684 65.994C59.9781 65.6999 60.3741 65.5301 60.79 65.52H67.6299V58.68C67.6401 58.2642 67.8098 57.8682 68.1039 57.574C68.3981 57.2799 68.7941 57.1102 69.21 57.1H70.2599C70.6758 57.1102 71.0718 57.2799 71.366 57.574C71.6601 57.8682 71.8298 58.2642 71.84 58.68V65.52H78.68C79.0958 65.5301 79.4918 65.6999 79.7859 65.994C80.0801 66.2881 80.2498 66.6842 80.2599 67.1V68.15C80.2495 68.5727 80.0742 68.9745 79.7715 69.2698C79.4689 69.565 79.0628 69.7302 78.64 69.73V69.73ZM54.84 51.22C56.266 53.0569 57.0431 55.3146 57.05 57.64C56.9928 59.8425 56.2826 61.9783 55.0096 63.7765C53.7367 65.5747 51.9582 66.9542 49.9 67.74C50.22 68.79 51.27 69.95 53.9 71.84C58.9 75.52 59.16 82.36 59.16 82.36V82.89C59.16 88.36 52.5299 92.89 44.4399 92.89C36.3499 92.89 29.72 88.37 29.72 82.89C29.72 77.63 35.72 73.32 43.39 72.89V68.58C37.5 67.84 32.87 63.22 32.87 57.64C32.87 51.54 38.23 46.64 44.96 46.64H45.49C45.49 46.64 57.58 45.69 59.16 45.59C60.74 45.49 60.21 47.69 60.21 47.69L54.84 51.22ZM37.0699 82.35C37.0699 85.82 40.65 88.66 44.96 88.66C49.27 88.66 52.85 85.82 52.85 82.35C52.85 78.88 49.27 76.04 44.96 76.04C40.65 76.04 37.1 78.88 37.1 82.35H37.0699ZM49.9 56.58C49.06 52.58 46.1099 49.74 43.3799 50.27C40.6499 50.8 39.1699 54.58 40.0099 58.58C40.8499 62.58 43.8 65.42 46.53 64.89C49.26 64.36 50.77 60.68 49.93 56.58H49.9Z" fill="url(#paint1_linear)"/>
<path id="Vector_6" d="M74.54 63.69H67.7V70.54C67.6898 70.9559 67.5201 71.3519 67.226 71.646C66.9318 71.9402 66.5358 72.1099 66.1199 72.12H65.0699C64.6541 72.1099 64.2581 71.9402 63.9639 71.646C63.6698 71.3519 63.5001 70.9559 63.4899 70.54V63.7H56.64C56.2241 63.6898 55.8281 63.5201 55.5339 63.226C55.2398 62.9319 55.0701 62.5359 55.0599 62.12V61.0701C55.0701 60.6542 55.2398 60.2582 55.5339 59.964C55.8281 59.6699 56.2241 59.5002 56.64 59.49H63.48V52.65C63.4901 52.2342 63.6598 51.8382 63.954 51.544C64.2481 51.2499 64.6441 51.0802 65.0599 51.07H66.1099C66.5258 51.0802 66.9218 51.2499 67.2159 51.544C67.5101 51.8382 67.6798 52.2342 67.6899 52.65V59.49H74.53C74.9458 59.5002 75.3418 59.6699 75.6359 59.964C75.9301 60.2582 76.0998 60.6542 76.1099 61.0701V62.12C76.0974 62.5325 75.928 62.9245 75.6362 63.2163C75.3445 63.508 74.9524 63.6775 74.54 63.69V63.69ZM50.77 45.18C52.1959 47.017 52.9731 49.2746 52.98 51.6C52.9228 53.8025 52.2126 55.9383 50.9396 57.7365C49.6667 59.5347 47.8882 60.9142 45.83 61.7C46.15 62.75 47.2 63.91 49.83 65.8C54.83 69.48 55.09 76.32 55.09 76.32V76.85C55.09 82.32 48.4599 86.85 40.3699 86.85C32.2799 86.85 25.64 82.31 25.64 76.84C25.64 71.58 31.6399 67.27 39.3099 66.84V62.54C33.4199 61.8 28.79 57.18 28.79 51.6C28.79 45.5 34.1499 40.6 40.8799 40.6H41.41C41.41 40.6 53.5 39.65 55.08 39.55C56.66 39.45 56.1299 41.65 56.1299 41.65L50.77 45.18ZM32.9999 76.31C32.9999 79.78 36.58 82.62 40.89 82.62C45.2 82.62 48.78 79.78 48.78 76.31C48.78 72.84 45.2 70 40.89 70C36.58 70 32.9999 72.84 32.9999 76.31ZM45.83 50.54C44.99 46.54 42.0399 43.7 39.3099 44.23C36.5799 44.76 35.0999 48.54 35.9399 52.54C36.7799 56.54 39.73 59.38 42.46 58.85C45.19 58.32 46.64 54.65 45.83 50.54Z" fill="#5E9194"/>
</g>
<defs>
<linearGradient id="paint0_linear" x1="75669.7" y1="59647.6" x2="75669.7" y2="44508.8" gradientUnits="userSpaceOnUse">
<stop stop-color="#808080" stop-opacity="0.25"/>
<stop offset="0.54" stop-color="#808080" stop-opacity="0.12"/>
<stop offset="1" stop-color="#808080" stop-opacity="0.1"/>
</linearGradient>
<linearGradient id="paint1_linear" x1="45662.3" y1="24774.8" x2="48213.5" y2="24774.8" gradientUnits="userSpaceOnUse">
<stop stop-color="#808080" stop-opacity="0.25"/>
<stop offset="0.54" stop-color="#808080" stop-opacity="0.12"/>
<stop offset="1" stop-color="#808080" stop-opacity="0.1"/>
</linearGradient>
</defs>
</svg>
