<svg width="232" height="279" viewBox="0 0 232 279" fill="none" xmlns="http://www.w3.org/2000/svg">
<g id="mail">
<path id="Vector" d="M0.102923 147.568L11.9058 196.324L242.787 140.432L230.984 91.6759C230.842 91.0798 230.551 90.5294 230.139 90.0757C229.726 89.622 229.206 89.2798 228.626 89.0809C228.198 88.9303 227.746 88.8622 227.292 88.8801L93.8332 19.7782C93.0511 19.3788 92.1521 19.2722 91.2983 19.4774C90.4445 19.6826 89.6921 20.1863 89.177 20.8974L24.8571 110.591L0.609149 144.414C0.56515 144.473 0.534419 144.541 0.519061 144.613C0.503703 144.686 0.504091 144.76 0.52016 144.832C0.0266684 145.654 -0.123272 146.636 0.102923 147.568V147.568Z" fill="white"/>
<path id="Vector_2" d="M0.520154 144.832C0.53157 144.896 0.555424 144.956 0.590283 145.01C0.625142 145.065 0.670305 145.111 0.723279 145.148C0.78592 145.191 0.85667 145.221 0.931164 145.235C1.00566 145.25 1.08238 145.25 1.15663 145.234C1.27738 145.201 1.3831 145.128 1.45552 145.026L1.53877 144.911L2.80128 143.145L25.7302 111.181L90.031 21.508C90.3979 20.9998 90.9348 20.64 91.5443 20.4939C92.1538 20.3478 92.7955 20.4251 93.3529 20.7117L225.778 89.2784L226.967 89.8952C227.015 89.9153 227.064 89.9326 227.114 89.9468C227.204 89.9305 227.294 89.9218 227.386 89.9208C227.51 89.8792 227.613 89.7917 227.675 89.6761C227.708 89.6152 227.727 89.5485 227.734 89.4799C227.74 89.4114 227.733 89.3422 227.713 89.2764C227.693 89.2105 227.659 89.1494 227.615 89.0963C227.571 89.0433 227.517 88.9995 227.456 88.9674L227.292 88.8801L93.8332 19.7782C93.0511 19.3788 92.1521 19.2722 91.2983 19.4774C90.4445 19.6826 89.6921 20.1863 89.177 20.8974L24.8571 110.591L0.609143 144.414C0.565146 144.473 0.534409 144.541 0.519055 144.613C0.503701 144.686 0.50408 144.76 0.520154 144.832V144.832Z" fill="#3F3D56"/>
<path id="Vector_3" d="M69.8611 149.804L75.0004 150.374L113.143 154.599L138.429 157.399L139.922 157.565L171.475 132.92L172.683 131.976L180.136 126.156L206.649 105.449L206.808 103.995L216.239 18.8809C216.367 17.7089 216.026 16.5337 215.289 15.613C214.553 14.6924 213.481 14.1013 212.31 13.9694L86.4539 0.0276344C85.2819 -0.100352 84.107 0.24128 83.1865 0.977723C82.2659 1.71417 81.6747 2.7854 81.5423 3.95683L74.8918 63.9944L71.2028 97.2802L67.9028 127.059L66.3731 140.888L65.9267 144.894C65.7994 146.066 66.142 147.241 66.8794 148.162C67.6169 149.082 68.6891 149.672 69.8611 149.804V149.804Z" fill="#E6E6E6"/>
<path id="Vector_4" d="M104.446 75.1978L158.963 81.2358L178.296 83.3765C179.15 83.471 180.014 83.3965 180.839 83.1572C181.663 82.9179 182.433 82.5185 183.103 81.9818C183.774 81.445 184.332 80.7815 184.746 80.0291C185.16 79.2767 185.422 78.4501 185.516 77.5965C185.611 76.7429 185.536 75.8791 185.297 75.0543C185.058 74.2295 184.658 73.4599 184.122 72.7895C183.585 72.119 182.921 71.5609 182.169 71.1469C181.416 70.7329 180.59 70.4712 179.736 70.3766L155.689 67.7134L105.89 62.1915C104.166 62.001 102.436 62.5031 101.082 63.5872C99.7279 64.6714 98.8597 66.249 98.6683 67.9732C98.4769 69.6973 98.978 71.4269 100.062 72.7817C101.145 74.1364 102.722 75.0055 104.446 75.1978Z" fill="white"/>
<path id="Vector_5" d="M101.342 99.3138C101.483 99.3389 101.624 99.3641 101.767 99.3779L165.052 106.389L175.618 107.562C177.343 107.752 179.072 107.25 180.427 106.166C181.781 105.081 182.649 103.503 182.84 101.778C183.031 100.054 182.529 98.3242 181.444 96.9698C180.359 95.6155 178.781 94.7475 177.057 94.5567L161.778 92.8664L111.648 87.3115L103.212 86.3767C101.525 86.1885 99.8304 86.6638 98.4874 87.702C97.1443 88.7403 96.2576 90.2601 96.0148 91.9402C95.772 93.6204 96.1921 95.3291 97.1863 96.7051C98.1804 98.0811 99.6708 99.0166 101.342 99.3137V99.3138Z" fill="white"/>
<path id="Vector_6" d="M94.1797 120.698C94.6983 121.559 95.4083 122.288 96.2548 122.831C97.1012 123.373 98.0612 123.712 99.0602 123.823L124.999 126.696L171.196 131.814L171.206 131.811L172.683 131.976L180.136 126.156C180.182 125.714 180.182 125.268 180.137 124.826C179.98 123.341 179.32 121.955 178.268 120.896C177.216 119.837 175.834 119.168 174.35 119.002L167.933 118.289L142.476 115.472L124.159 113.44L100.499 110.818C99.286 110.684 98.0601 110.891 96.9594 111.417C95.8586 111.943 94.9269 112.767 94.2696 113.795C93.6123 114.822 93.2555 116.013 93.2396 117.233C93.2238 118.453 93.5494 119.653 94.1798 120.698L94.1797 120.698Z" fill="white"/>
<path id="Vector_7" d="M19.6976 81.9318L36.2349 150.246L63.8361 155.494L89.3682 160.355L116.762 165.567L125.515 167.233C126.027 167.33 126.554 167.316 127.061 167.194C127.568 167.071 128.043 166.842 128.454 166.521L135.476 161.037L139.922 157.565L171.475 132.92L151.413 50.0463C151.214 49.2218 150.782 48.4721 150.168 47.8872C149.63 47.3697 148.97 46.9961 148.249 46.8009C147.528 46.6056 146.769 46.595 146.043 46.77L22.9738 76.5627C21.8278 76.8409 20.8391 77.5626 20.2247 78.5693C19.6104 79.576 19.4208 80.7854 19.6976 81.9318V81.9318Z" fill="#E8DBD2"/>
<path id="Vector_8" d="M57.6179 136.278C58.0274 137.963 59.0888 139.417 60.5691 140.32C62.0495 141.223 63.8278 141.502 65.5137 141.096L137.728 123.614C139.413 123.204 140.866 122.142 141.769 120.662C142.672 119.182 142.952 117.404 142.546 115.718C142.528 115.635 142.504 115.553 142.476 115.472C142.014 113.846 140.942 112.463 139.483 111.611C138.025 110.758 136.293 110.504 134.65 110.9L62.4359 128.382C60.7507 128.792 59.2969 129.853 58.3936 131.333C57.4903 132.814 57.2113 134.592 57.6179 136.278Z" fill="white"/>
<path id="Vector_9" d="M63.8361 155.494L89.3682 160.355L143.453 147.262C145.139 146.854 146.593 145.793 147.497 144.312C148.401 142.831 148.679 141.052 148.271 139.366C147.863 137.68 146.801 136.225 145.321 135.322C143.84 134.418 142.061 134.14 140.375 134.548L68.1606 152.03C66.6514 152.392 65.322 153.283 64.4131 154.541C64.1942 154.842 64.0012 155.161 63.8361 155.494Z" fill="white"/>
<path id="Vector_10" d="M116.762 165.567L125.515 167.233C126.027 167.33 126.554 167.316 127.061 167.194C127.568 167.071 128.043 166.842 128.454 166.521L135.476 161.037L116.762 165.567Z" fill="white"/>
<path id="Vector_11" d="M72.1687 99.6467C72.5781 101.332 73.6396 102.786 75.12 103.689C76.6003 104.592 78.3786 104.871 80.0645 104.465L108.035 97.6936C109.719 97.2833 111.173 96.2217 112.076 94.7416C112.979 93.2615 113.258 91.4836 112.853 89.7978C112.635 88.892 112.224 88.0439 111.648 87.3116C110.874 86.3217 109.832 85.5755 108.645 85.162C107.459 84.7486 106.178 84.6853 104.957 84.9798L76.9867 91.7509C75.3009 92.1592 73.8463 93.2204 72.9428 94.7011C72.0393 96.1818 71.7608 97.9607 72.1687 99.6466V99.6467Z" fill="white"/>
<path id="Vector_12" d="M89.3661 160.354L116.764 165.568L125.514 167.234C126.027 167.33 126.553 167.316 127.06 167.193C127.566 167.071 128.041 166.842 128.453 166.523L135.48 161.037L133.014 161.634L127.808 165.695C127.514 165.923 127.175 166.087 126.813 166.174C126.451 166.262 126.075 166.272 125.709 166.203L119.23 164.971L91.832 159.757L89.3661 160.354ZM171.204 131.815L171.47 132.917L172.686 131.972L171.204 131.815ZM89.3661 160.354L116.764 165.568L125.514 167.234C126.027 167.33 126.553 167.316 127.06 167.193C127.566 167.071 128.041 166.842 128.453 166.523L135.48 161.037L133.014 161.634L127.808 165.695C127.514 165.923 127.175 166.087 126.813 166.174C126.451 166.262 126.075 166.272 125.709 166.203L119.23 164.971L91.832 159.757L89.3661 160.354ZM89.3661 160.354L116.764 165.568L125.514 167.234C126.027 167.33 126.553 167.316 127.06 167.193C127.566 167.071 128.041 166.842 128.453 166.523L135.48 161.037L133.014 161.634L127.808 165.695C127.514 165.923 127.175 166.087 126.813 166.174C126.451 166.262 126.075 166.272 125.709 166.203L119.23 164.971L91.832 159.757L89.3661 160.354ZM0.102922 147.567L31.0189 275.278C31.2484 276.221 31.8428 277.036 32.6719 277.541C33.5009 278.047 34.4968 278.204 35.441 277.976L259.202 223.808C260.146 223.579 260.96 222.984 261.466 222.155C261.972 221.326 262.128 220.33 261.9 219.386L230.984 91.6759C230.842 91.0798 230.551 90.5293 230.139 90.0756C229.726 89.622 229.206 89.2798 228.626 89.0808C228.198 88.9303 227.746 88.8622 227.292 88.8801C226.764 88.8953 226.246 89.0316 225.778 89.2784C225.562 89.3808 225.359 89.5073 225.171 89.6554L206.807 103.995L180.137 124.829L171.202 131.808L171.204 131.815L171.196 131.817L138.43 157.395L133.014 161.634L127.808 165.695C127.514 165.923 127.175 166.086 126.813 166.174C126.451 166.262 126.075 166.272 125.709 166.203L119.23 164.971L91.832 159.757L64.4099 154.542L4.34871 143.112C3.83661 143.01 3.30852 143.022 2.80129 143.145C2.11828 143.312 1.49761 143.672 1.01308 144.181C0.82758 144.381 0.662453 144.599 0.520158 144.832C0.0266602 145.654 -0.123267 146.636 0.102922 147.567V147.567ZM89.3661 160.354L116.764 165.568L125.514 167.234C126.027 167.33 126.553 167.316 127.06 167.193C127.566 167.071 128.041 166.842 128.453 166.523L135.48 161.037L133.014 161.634L127.808 165.695C127.514 165.923 127.175 166.087 126.813 166.174C126.451 166.262 126.075 166.272 125.709 166.203L119.23 164.971L91.832 159.757L89.3661 160.354ZM89.3661 160.354L116.764 165.568L125.514 167.234C126.027 167.33 126.553 167.316 127.06 167.193C127.566 167.071 128.041 166.842 128.453 166.523L135.48 161.037L133.014 161.634L127.808 165.695C127.514 165.923 127.175 166.087 126.813 166.174C126.451 166.262 126.075 166.272 125.709 166.203L119.23 164.971L91.832 159.757L89.3661 160.354ZM89.3661 160.354L116.764 165.568L125.514 167.234C126.027 167.33 126.553 167.316 127.06 167.193C127.566 167.071 128.041 166.842 128.453 166.523L135.48 161.037L133.014 161.634L127.808 165.695C127.514 165.923 127.175 166.087 126.813 166.174C126.451 166.262 126.075 166.272 125.709 166.203L119.23 164.971L91.832 159.757L89.3661 160.354Z" fill="white"/>
<path id="Vector_13" d="M89.3661 160.354L116.764 165.568L125.514 167.234C126.027 167.33 126.553 167.316 127.06 167.193C127.566 167.071 128.041 166.842 128.453 166.523L135.48 161.037L133.014 161.634L127.808 165.695C127.514 165.923 127.175 166.087 126.813 166.174C126.451 166.262 126.075 166.272 125.709 166.203L119.23 164.971L91.832 159.757L89.3661 160.354ZM171.204 131.815L171.47 132.917L172.686 131.972L171.204 131.815ZM89.3661 160.354L116.764 165.568L125.514 167.234C126.027 167.33 126.553 167.316 127.06 167.193C127.566 167.071 128.041 166.842 128.453 166.523L135.48 161.037L133.014 161.634L127.808 165.695C127.514 165.923 127.175 166.087 126.813 166.174C126.451 166.262 126.075 166.272 125.709 166.203L119.23 164.971L91.832 159.757L89.3661 160.354ZM89.3661 160.354L116.764 165.568L125.514 167.234C126.027 167.33 126.553 167.316 127.06 167.193C127.566 167.071 128.041 166.842 128.453 166.523L135.48 161.037L133.014 161.634L127.808 165.695C127.514 165.923 127.175 166.087 126.813 166.174C126.451 166.262 126.075 166.272 125.709 166.203L119.23 164.971L91.832 159.757L89.3661 160.354ZM1.53877 144.911L1.67464 145.013C1.69739 144.976 1.73699 144.942 1.76705 144.903C2.07003 144.588 2.44654 144.353 2.86281 144.219C3.27907 144.085 3.72208 144.056 4.15212 144.136L63.8378 155.49L89.3661 160.354L116.764 165.568L125.514 167.234C126.027 167.33 126.553 167.316 127.06 167.193C127.566 167.071 128.041 166.842 128.453 166.523L135.48 161.037L133.014 161.634L127.808 165.695C127.514 165.923 127.175 166.086 126.813 166.174C126.451 166.262 126.075 166.272 125.709 166.203L119.23 164.971L91.832 159.757L64.4099 154.542L4.34871 143.112C3.83661 143.01 3.30852 143.022 2.80129 143.145L1.53877 144.911ZM0.102922 147.567L31.0189 275.278C31.2484 276.221 31.8428 277.036 32.6719 277.541C33.5009 278.047 34.4968 278.204 35.441 277.976L259.202 223.808C260.146 223.579 260.96 222.984 261.466 222.155C261.972 221.326 262.128 220.33 261.9 219.386L230.984 91.6759C230.842 91.0798 230.551 90.5293 230.139 90.0757C229.726 89.622 229.206 89.2798 228.626 89.0809C228.198 88.9303 227.746 88.8622 227.292 88.8801C226.764 88.8954 226.246 89.0316 225.778 89.2784C225.562 89.3809 225.359 89.5074 225.171 89.6555L206.807 103.995L180.137 124.829L171.202 131.808L171.204 131.815L171.196 131.817L138.43 157.395L133.014 161.634L127.808 165.695C127.514 165.923 127.175 166.087 126.813 166.174C126.451 166.262 126.075 166.272 125.709 166.203L119.23 164.971L91.832 159.757L64.4099 154.542L4.34871 143.112C3.83661 143.01 3.30852 143.022 2.80129 143.145C2.11828 143.312 1.49761 143.672 1.01308 144.181C0.82758 144.381 0.662453 144.599 0.520158 144.832C0.0266602 145.654 -0.123267 146.636 0.102922 147.567V147.567ZM1.12258 147.321C1.03132 146.944 1.02539 146.552 1.10524 146.173C1.1851 145.794 1.34868 145.438 1.58406 145.13C1.60531 145.085 1.63623 145.045 1.67464 145.013C1.69739 144.976 1.73699 144.942 1.76705 144.903C2.07003 144.588 2.44654 144.353 2.86281 144.219C3.27907 144.085 3.72208 144.056 4.15212 144.136L63.8378 155.49L89.3661 160.354L116.764 165.568L125.514 167.234C126.027 167.33 126.553 167.316 127.06 167.193C127.566 167.071 128.041 166.842 128.453 166.523L135.48 161.037L139.924 157.565L171.47 132.917L172.686 131.972L180.132 126.155L206.65 105.445L225.822 90.4739C226.113 90.2466 226.45 90.084 226.809 89.9968C226.909 89.9723 227.011 89.9556 227.114 89.9468C227.204 89.9305 227.294 89.9218 227.385 89.9208C227.692 89.9179 227.997 89.9676 228.286 90.0677C228.699 90.2116 229.07 90.4565 229.365 90.7802C229.659 91.1038 229.868 91.4959 229.972 91.9209L260.888 219.631C260.97 219.966 260.984 220.313 260.931 220.653C260.878 220.994 260.758 221.32 260.579 221.614C260.4 221.908 260.164 222.164 259.886 222.367C259.607 222.57 259.292 222.716 258.957 222.796L35.1961 276.964C34.521 277.126 33.8091 277.014 33.2169 276.651C32.6248 276.289 32.201 275.706 32.0386 275.031L1.12258 147.321ZM89.3661 160.354L116.764 165.568L125.514 167.234C126.027 167.33 126.553 167.316 127.06 167.194C127.566 167.071 128.041 166.842 128.453 166.523L135.48 161.037L133.014 161.634L127.808 165.695C127.514 165.923 127.175 166.087 126.813 166.174C126.451 166.262 126.075 166.272 125.709 166.203L119.23 164.971L91.832 159.757L89.3661 160.354ZM89.3661 160.354L116.764 165.568L125.514 167.234C126.027 167.33 126.553 167.316 127.06 167.194C127.566 167.071 128.041 166.842 128.453 166.523L135.48 161.037L133.014 161.634L127.808 165.695C127.514 165.923 127.175 166.087 126.813 166.174C126.451 166.262 126.075 166.272 125.709 166.203L119.23 164.971L91.832 159.757L89.3661 160.354ZM89.3661 160.354L116.764 165.568L125.514 167.234C126.027 167.33 126.553 167.316 127.06 167.194C127.566 167.071 128.041 166.842 128.453 166.523L135.48 161.037L133.014 161.634L127.808 165.695C127.514 165.923 127.175 166.087 126.813 166.174C126.451 166.262 126.075 166.272 125.709 166.203L119.23 164.971L91.832 159.757L89.3661 160.354Z" fill="#3F3D56"/>
<path id="Vector_14" d="M200.883 198.717C200.379 196.625 200.725 194.418 201.847 192.58C202.968 190.743 204.772 189.425 206.864 188.916L235.105 182.079C237.195 181.581 239.397 181.932 241.229 183.054C243.061 184.176 244.373 185.979 244.879 188.067C245.384 190.155 245.042 192.358 243.926 194.194C242.81 196.03 241.012 197.349 238.926 197.861L210.684 204.698C208.592 205.202 206.384 204.856 204.547 203.734C202.71 202.613 201.392 200.809 200.883 198.717Z" fill="#E8DBD2"/>
</g>
</svg>
