<svg width="72" height="72" viewBox="0 0 72 72" fill="none" xmlns="http://www.w3.org/2000/svg">
<g id="menu">
<g id="Menu icon">
<circle id="Oval" cx="36" cy="36" r="36" fill="#E8DBD2"/>
<path id="Combined Shape" fill-rule="evenodd" clip-rule="evenodd" d="M28 30C29.1046 30 30 29.1046 30 28C30 26.8954 29.1046 26 28 26C26.8954 26 26 26.8954 26 28C26 29.1046 26.8954 30 28 30ZM28 46C29.1046 46 30 45.1046 30 44C30 42.8954 29.1046 42 28 42C26.8954 42 26 42.8954 26 44C26 45.1046 26.8954 46 28 46ZM46 28C46 29.1046 45.1046 30 44 30C42.8954 30 42 29.1046 42 28C42 26.8954 42.8954 26 44 26C45.1046 26 46 26.8954 46 28ZM44 46C45.1046 46 46 45.1046 46 44C46 42.8954 45.1046 42 44 42C42.8954 42 42 42.8954 42 44C42 45.1046 42.8954 46 44 46Z" fill="#413382"/>
</g>
</g>
</svg>
