<svg width="483" height="306" viewBox="0 0 483 306" fill="none" xmlns="http://www.w3.org/2000/svg">
<g id="order">
<path id="Path 140" d="M109.495 111.719C104.383 111.719 99.3861 110.203 95.1357 107.363C90.8854 104.523 87.5726 100.487 85.6164 95.7638C83.6602 91.0411 83.1483 85.8443 84.1456 80.8307C85.1429 75.817 87.6045 71.2117 91.2191 67.5971C94.8337 63.9825 99.4391 61.5209 104.453 60.5236C109.466 59.5263 114.663 60.0382 119.386 61.9944C124.109 63.9506 128.145 67.2634 130.985 71.5137C133.825 75.7641 135.341 80.7611 135.341 85.873C135.341 92.7278 132.618 99.3018 127.771 104.149C122.924 108.996 116.35 111.719 109.495 111.719V111.719ZM109.495 60.919C104.559 60.919 99.7346 62.3826 95.6308 65.1247C91.5269 67.8667 88.3284 71.7642 86.4396 76.3241C84.5508 80.8841 84.0566 85.9017 85.0195 90.7425C85.9824 95.5833 88.3591 100.03 91.8491 103.52C95.3392 107.01 99.7857 109.387 104.627 110.349C109.467 111.312 114.485 110.818 119.045 108.929C123.605 107.041 127.502 103.842 130.244 99.7382C132.986 95.6344 134.45 90.8096 134.45 85.874C134.45 82.5968 133.805 79.3518 132.55 76.3241C131.296 73.2964 129.458 70.5454 127.141 68.2281C124.824 65.9108 122.073 64.0727 119.045 62.8186C116.017 61.5644 112.772 60.919 109.495 60.919V60.919Z" fill="#3F3D56"/>
<path id="Path 174" d="M371.495 111.719C366.383 111.719 361.386 110.203 357.136 107.363C352.885 104.523 349.573 100.487 347.616 95.7638C345.66 91.0411 345.148 85.8443 346.146 80.8307C347.143 75.817 349.605 71.2117 353.219 67.5971C356.834 63.9825 361.439 61.5209 366.453 60.5236C371.466 59.5263 376.663 60.0382 381.386 61.9944C386.109 63.9506 390.145 67.2634 392.985 71.5137C395.825 75.7641 397.341 80.7611 397.341 85.873C397.341 92.7278 394.618 99.3018 389.771 104.149C384.924 108.996 378.35 111.719 371.495 111.719V111.719ZM371.495 60.919C366.559 60.919 361.735 62.3826 357.631 65.1247C353.527 67.8667 350.328 71.7642 348.44 76.3241C346.551 80.8841 346.057 85.9017 347.02 90.7425C347.982 95.5833 350.359 100.03 353.849 103.52C357.339 107.01 361.786 109.387 366.627 110.349C371.467 111.312 376.485 110.818 381.045 108.929C385.605 107.041 389.502 103.842 392.244 99.7382C394.986 95.6344 396.45 90.8096 396.45 85.874C396.45 82.5968 395.805 79.3518 394.55 76.3241C393.296 73.2964 391.458 70.5454 389.141 68.2281C386.824 65.9108 384.073 64.0727 381.045 62.8186C378.017 61.5644 374.772 60.919 371.495 60.919V60.919Z" fill="#3F3D56"/>
<path id="Path 146" d="M466.125 51.732H15.88C7.11499 51.747 0.012 60.522 0 71.352V286.009C0.012 296.838 7.11499 305.609 15.88 305.629H466.125C474.89 305.614 481.993 296.839 482.005 286.009V71.351C481.993 60.522 474.89 51.751 466.125 51.731V51.732ZM480.139 286.009C480.129 295.565 473.862 303.309 466.127 303.32H15.88C8.14499 303.308 1.88 295.565 1.868 286.009V71.351C1.877 61.795 8.14499 54.051 15.88 54.04H466.125C473.86 54.052 480.125 61.795 480.137 71.351L480.139 286.009Z" fill="#3F3D56"/>
<path id="Rectangle 21" d="M113 138.068H33V194.068H113V138.068Z" fill="#F2F2F2"/>
<path id="Rectangle 30" d="M225 138.068H145V194.068H225V138.068Z" fill="#F2F2F2"/>
<path id="Rectangle 31" d="M337 138.068H257V194.068H337V138.068Z" fill="#F2F2F2"/>
<path id="Rectangle 32" d="M449 138.068H369V194.068H449V138.068Z" fill="#F2F2F2"/>
<path id="Rectangle 33" d="M113 220.068H33V276.068H113V220.068Z" fill="#F2F2F2"/>
<path id="Rectangle 34" d="M225 220.068H145V276.068H225V220.068Z" fill="#F2F2F2"/>
<path id="Rectangle 35" d="M337 220.068H257V276.068H337V220.068Z" fill="#F2F2F2"/>
<path id="Rectangle 36" d="M449 220.068H369V276.068H449V220.068Z" fill="#F2F2F2"/>
<path id="Path 168" d="M171.649 275.742L152.764 249.661L157.908 245.937L172.364 265.9L227.681 209.068L232.231 213.498L171.649 275.742Z" fill="#E8DBD2"/>
<path id="Path 176" d="M284.649 193.742L265.764 167.661L270.908 163.937L285.364 183.9L340.681 127.068L345.231 131.498L284.649 193.742Z" fill="#E8DBD2"/>
<path id="Rectangle 38" d="M109.836 -10H108.469V85.99H109.836V-10Z" fill="#2F2E41"/>
<path id="Rectangle 40" d="M372.836 -10H371.469V85.99H372.836V-10Z" fill="#2F2E41"/>
<path id="Path 238" d="M60.649 193.742L41.764 167.661L46.908 163.937L61.364 183.9L116.681 127.068L121.231 131.498L60.649 193.742Z" fill="#E8DBD2"/>
</g>
</svg>
