<svg width="1100" height="674" viewBox="0 0 1100 674" fill="none" xmlns="http://www.w3.org/2000/svg">
<g id="undraw_welcoming_xvuq 1" clip-path="url(#clip0)">
<g id="baloon">
<path id="Vector" d="M550.468 674L552.152 672.556C551.819 672.292 518.678 645.541 506.048 595.548C494.384 549.384 498.324 473.378 583.33 373.455C618.847 331.705 643.068 292.259 655.321 256.214C665.332 226.761 667.451 199.381 661.62 174.835C650.093 126.305 610.912 104.999 610.518 104.79L609.202 106.473C609.588 106.679 647.95 127.584 659.251 175.282C672.217 230.006 646.004 296.294 581.34 372.305C543.581 416.691 518.446 460.154 506.632 501.488C497.168 534.599 496.182 566.426 503.702 596.085C516.518 646.635 550.13 673.732 550.468 674Z" fill="#F4EFE4"/>
<path id="Vector_2" d="M632.033 216.565C580.094 216.565 537.988 181.855 537.988 139.038C537.988 96.2207 580.094 61.5106 632.033 61.5106C683.973 61.5106 726.078 96.2207 726.078 139.038C726.078 181.855 683.973 216.565 632.033 216.565Z" fill="#F4EFE4"/>
<path id="Vector_3" d="M609.86 211.264C635.203 211.264 659.977 205.069 681.049 193.462C702.121 181.855 718.545 165.357 728.244 146.056C737.942 126.754 740.48 105.515 735.536 85.0244C730.591 64.5338 718.388 45.712 700.467 30.9391C682.547 16.1662 659.715 6.10566 634.859 2.02978C610.003 -2.04609 584.239 0.0457214 560.825 8.0407C537.411 16.0357 517.398 29.5747 503.318 46.9458C489.238 64.3168 481.723 84.7396 481.723 105.632C481.762 133.637 495.274 160.487 519.296 180.29C543.318 200.093 575.888 211.232 609.86 211.264ZM609.86 2.00297C634.723 2.00292 659.027 8.08061 679.7 19.4675C700.372 30.8544 716.484 47.039 725.999 65.9747C735.513 84.9104 738.003 105.747 733.152 125.849C728.302 145.951 716.33 164.416 698.749 178.909C681.168 193.401 658.77 203.271 634.385 207.27C610 211.268 584.724 209.216 561.754 201.372C538.784 193.529 519.151 180.247 505.338 163.205C491.525 146.163 484.153 126.128 484.153 105.632C484.191 78.1572 497.447 51.8169 521.013 32.3895C544.58 12.9621 576.532 2.03411 609.86 2.00297Z" fill="#F4EFE4"/>
<path id="Vector_4" d="M537.988 379.183C494.917 379.183 460 350.399 460 314.892C460 279.386 494.917 250.602 537.988 250.602C581.06 250.602 615.977 279.386 615.977 314.892C615.977 350.399 581.06 379.183 537.988 379.183Z" fill="#F4EFE4"/>
<path id="Vector_5" d="M577.747 602.311C534.675 602.311 499.759 573.527 499.759 538.02C499.759 502.513 534.675 473.729 577.747 473.729C620.819 473.729 655.736 502.513 655.736 538.02C655.736 573.527 620.819 602.311 577.747 602.311Z" fill="#F4EFE4"/>
</g>
<path id="Vector_6" d="M336.579 114H571.579V267H336.579V114Z" fill="#C6D8CF"/>
<path id="Vector_7" d="M110.599 667.716H328.24C328.24 667.716 332.651 603.011 306.549 602.276C280.447 601.541 283.388 630.952 250.668 590.512C217.949 550.072 178.244 552.278 173.097 576.174C167.95 600.07 183.023 619.187 155.45 613.305C127.878 607.423 88.1728 622.864 110.599 667.716Z" fill="#F4EFE4" fill-opacity="0.86"/>
<path id="Vector_8" d="M218.961 668.11L219.696 668.081C217.983 625.48 209.061 598.109 201.878 582.649C194.079 565.862 186.564 559.067 186.489 559L186 559.549C186.074 559.615 193.502 566.344 201.238 583.016C208.382 598.411 217.255 625.67 218.961 668.11Z" fill="white"/>
<path id="Vector_9" d="M171.504 657.981L172.21 657.775C166.736 639.72 156.87 623.305 143.494 610L143 610.544C156.277 623.757 166.07 640.055 171.504 657.981Z" fill="white"/>
<path id="Vector_10" d="M841.966 656.665L842.999 656.165C843.313 656.013 874.567 640.617 887.148 611.083C899.729 581.548 889.177 548.344 889.069 548.012L888.715 546.922L887.683 547.422C887.369 547.573 856.114 562.969 843.534 592.504C830.952 622.039 841.504 655.243 841.612 655.574L841.966 656.665ZM887.504 549.765C889.198 555.772 896.294 584.509 885.309 610.299C874.314 636.109 848.683 650.885 843.178 653.822C841.483 647.814 834.387 619.078 845.373 593.288C856.368 567.478 881.999 552.702 887.504 549.765Z" fill="#3F3D56"/>
<path id="Vector_11" d="M904.37 640.063C878.618 659.225 844.188 656.545 844.188 656.545C844.188 656.545 851.512 622.796 877.264 603.634C903.016 584.472 937.446 587.153 937.446 587.153C937.446 587.153 930.122 620.901 904.37 640.063Z" fill="#E8DBD2"/>
<path id="Vector_12" d="M841.879 656.044L842.817 656.703C843.102 656.904 871.752 676.729 903.678 673.363C935.603 669.996 959.488 644.631 959.726 644.375L960.505 643.536L959.567 642.877C959.282 642.676 930.632 622.851 898.706 626.217C866.78 629.584 842.896 654.948 842.658 655.205L841.879 656.044ZM957.432 643.859C953.007 648.261 931.346 668.435 903.468 671.373C875.59 674.314 850.199 659.102 844.952 655.721C849.378 651.318 871.038 631.146 898.916 628.207C926.816 625.264 952.189 640.477 957.432 643.859Z" fill="#3F3D56"/>
<path id="Vector_13" d="M858.25 595.282C862.474 627.103 843.391 655.885 843.391 655.885C843.391 655.885 817.462 633.077 813.238 601.257C809.015 569.436 828.097 540.654 828.097 540.654C828.097 540.654 854.027 563.462 858.25 595.282Z" fill="#3F3D56"/>
<path id="Vector_14" d="M916.321 564.016C909.812 558.892 908.689 549.461 913.813 542.952C918.937 536.443 928.368 535.32 934.877 540.444C941.387 545.568 942.51 554.999 937.385 561.508C932.261 568.018 922.83 569.141 916.321 564.016Z" fill="#E8DBD2"/>
<path id="Vector_15" d="M714.141 355.292C714.141 355.292 730.402 351.111 734.119 357.615C737.835 364.119 736.906 385.49 736.906 385.955C736.906 386.419 731.331 391.065 729.473 391.065C727.614 391.065 716 411.972 700.204 404.538C684.408 397.105 714.141 355.292 714.141 355.292Z" fill="#2F2E41"/>
<g id="play">
<path id="Vector_16" d="M802.289 420.486C825.29 442.877 828.099 477.296 828.099 477.296C828.099 477.296 793.617 475.413 770.616 453.023C747.616 430.632 744.806 396.213 744.806 396.213C744.806 396.213 779.288 398.096 802.289 420.486Z" fill="#3F3D56"/>
<path id="Vector_17" d="M833.597 672.017L834.984 670.575C834.766 670.366 813.128 649.171 804.887 609.567C797.276 572.99 799.861 512.766 855.398 433.574C897.992 372.838 915.229 319.774 906.629 275.857C899.074 237.275 873.379 220.326 873.12 220.16L872.037 221.84C872.288 222.003 897.309 238.552 904.678 276.304C913.14 319.655 896.009 372.183 853.76 432.426C829.053 467.657 812.604 502.159 804.873 534.973C798.678 561.268 798.032 586.546 802.956 610.102C811.35 650.265 833.376 671.804 833.597 672.017Z" fill="#3F3D56"/>
<path id="Vector_18" d="M843.579 270C744.168 270 663.579 256.174 663.579 239.12C663.579 222.065 744.168 208.239 843.579 208.239C942.99 208.239 1023.58 222.065 1023.58 239.12C1023.58 256.174 942.99 270 843.579 270Z" fill="#E8DBD2"/>
<path id="Vector_19" d="M877.079 261C1001.84 261 1099.58 243.869 1099.58 222C1099.58 200.131 1001.84 183 877.079 183C752.313 183 654.579 200.131 654.579 222C654.579 243.869 752.313 261 877.079 261ZM877.079 185C996.602 185 1097.58 201.944 1097.58 222C1097.58 242.056 996.602 259 877.079 259C757.555 259 656.579 242.056 656.579 222C656.579 201.944 757.555 185 877.079 185Z" fill="#3F3D56"/>
<path id="Vector_20" d="M826.518 70.4441C826.518 70.4441 853.192 62.9304 861.081 99.3719C868.971 135.813 862.96 154.222 862.96 154.222L803.414 147.272C803.414 147.272 786.508 81.5268 826.518 70.4441Z" fill="#2F2E41"/>
<path id="Vector_21" d="M866.425 228.28C866.425 228.28 905.551 232.177 898.582 247.973C891.613 263.769 891.613 265.162 891.613 265.162L857.234 326.488L846.084 314.873C846.084 314.873 858.628 287.462 858.628 278.635C858.628 269.808 871.636 254.477 871.636 254.477L848.871 252.618L866.425 228.28Z" fill="#D6B7A0"/>
<path id="Vector_22" d="M759.206 247.043L746.198 275.383C746.198 275.383 736.442 285.139 725.756 324.165C715.071 363.19 712.748 361.796 712.748 361.796L729.008 365.048C729.008 365.048 747.127 322.771 753.167 319.519C759.206 316.267 766.64 286.533 766.64 286.533L788.011 259.587L781.506 245.185L759.206 247.043Z" fill="#D6B7A0"/>
<path id="Vector_23" d="M775.002 214.522L755.025 251.689C755.025 251.689 780.113 240.075 783.829 265.627L806.594 247.973C806.594 247.973 838.186 258.193 857.234 254.477C857.234 254.477 851.659 236.823 871.636 228.925L826.571 223.35L828.43 213.593L823.784 204.301L775.002 214.522Z" fill="#5E9194"/>
<path id="Vector_24" d="M854.447 318.125C854.447 318.125 866.99 316.267 863.738 327.417L857.234 349.717C857.234 349.717 865.597 372.482 852.588 367.371C839.58 362.261 831.217 330.669 831.217 330.669C831.217 330.669 825.642 306.51 831.217 306.51C836.792 306.51 854.446 302.794 852.588 306.51C850.73 310.227 854.447 318.125 854.447 318.125Z" fill="#2F2E41"/>
<path id="Vector_25" d="M831.217 127.18C821.21 127.18 813.098 119.068 813.098 109.061C813.098 99.0544 821.21 90.9423 831.217 90.9423C841.224 90.9423 849.336 99.0544 849.336 109.061C849.336 119.068 841.224 127.18 831.217 127.18Z" fill="#D6B7A0"/>
<path id="Vector_26" d="M816.35 112.778C816.35 112.778 812.634 132.291 809.382 135.078C806.13 137.866 834.005 142.047 834.005 142.047C834.005 142.047 829.823 128.574 834.934 121.605C840.044 114.636 816.35 112.778 816.35 112.778Z" fill="#D6B7A0"/>
<path id="Vector_27" d="M767.569 223.349C770.733 223.349 778.789 222.039 787.82 220.353C795.634 218.894 804.188 217.161 810.933 215.758C818.158 214.253 823.319 213.129 823.319 213.129C823.319 213.129 825.178 224.743 831.217 223.349C836.421 222.151 851.97 167.836 856.175 152.825C856.482 151.729 856.423 150.563 856.006 149.504C855.589 148.444 854.838 147.55 853.866 146.958L832.509 133.917L827.036 136.007C827.036 136.007 817.791 128.862 812.425 128.718C807.059 128.574 797.767 127.18 797.767 127.18C797.767 127.18 787.081 128.109 785.223 136.007C783.365 143.905 782.436 193.151 775.467 201.978C768.498 210.806 758.742 223.349 767.569 223.349Z" fill="#D0CDE1"/>
<path id="Vector_28" d="M832.611 249.366C832.611 249.366 832.611 267.485 820.532 264.698C808.452 261.91 819.603 245.185 819.603 245.185L832.611 249.366Z" fill="#D6B7A0"/>
<path id="Vector_29" d="M799.161 251.225C799.161 251.225 803.342 272.596 812.169 269.344C820.996 266.091 812.169 247.043 812.169 247.043L799.161 251.225Z" fill="#D6B7A0"/>
<path id="Vector_30" opacity="0.15" d="M779.648 200.585C779.648 200.585 784.196 211.437 787.82 220.353C795.634 218.894 804.187 217.161 810.933 215.758C810.449 214.475 809.769 213.275 808.917 212.199C805.665 208.483 807.523 207.554 807.523 207.554C810.311 201.979 807.988 194.545 807.988 194.545C813.563 179.678 805.2 161.095 805.2 161.095L779.648 200.585Z" fill="black"/>
<path id="Vector_31" d="M803.807 161.095C803.807 161.095 812.169 179.678 806.594 194.545C806.594 194.545 808.917 201.978 806.13 207.554C806.13 207.554 804.271 208.483 807.523 212.199C810.775 215.916 813.563 228.925 811.24 231.712C808.917 234.5 814.492 239.61 813.098 242.398C811.705 245.185 815.421 248.902 815.421 248.902C815.421 248.902 801.484 251.689 799.161 255.871C799.161 255.871 796.373 252.618 797.767 248.902C799.161 245.185 798.232 243.791 796.838 241.468C795.444 239.145 791.263 234.035 790.798 231.712C790.334 229.389 778.254 200.585 778.254 200.585L783.919 148.093L803.807 161.095Z" fill="#D0CDE1"/>
<path id="Vector_32" d="M852.124 148.086L852.992 148.244C854.202 148.464 855.296 149.103 856.081 150.05C856.865 150.997 857.291 152.191 857.282 153.421C857.249 158.085 856.986 166.364 855.84 177.82C853.982 196.403 847.478 224.279 846.084 227.066C843.871 231.999 841.389 236.807 838.651 241.468C834.469 248.437 833.54 246.114 834.469 249.366C834.752 250.262 834.771 251.22 834.524 252.127C834.277 253.033 833.774 253.849 833.076 254.477C833.076 254.477 824.713 245.185 816.35 250.296C815.753 248.982 815.436 247.558 815.421 246.114C815.421 243.791 814.028 241.468 816.35 240.075C818.673 238.681 814.957 232.641 818.673 229.389C822.39 226.137 822.855 226.602 822.39 223.35C822.173 221.138 822.492 218.907 823.319 216.845L852.124 148.086Z" fill="#D0CDE1"/>
<path id="Vector_33" d="M824.443 85.7864C824.443 85.7864 831.957 105.698 850.366 113.963L853.371 96.3055L824.443 85.7864Z" fill="#2F2E41"/>
<path id="Vector_34" d="M813.563 106.971C812.152 106.971 811.008 104.787 811.008 102.092C811.008 99.3983 812.152 97.2142 813.563 97.2142C814.974 97.2142 816.118 99.3983 816.118 102.092C816.118 104.787 814.974 106.971 813.563 106.971Z" fill="#D6B7A0"/>
</g>
<path id="Vector_35" d="M288.187 358.86C270.263 358.86 255.732 344.33 255.732 326.406C255.732 308.482 270.263 293.952 288.187 293.952C306.111 293.952 320.641 308.482 320.641 326.406C320.641 344.33 306.111 358.86 288.187 358.86Z" fill="#2F2E41"/>
<path id="Vector_36" d="M292.522 294.561C286.568 294.561 281.741 289.734 281.741 283.78C281.741 277.826 286.568 273 292.522 273C298.476 273 303.302 277.826 303.302 283.78C303.302 289.734 298.476 294.561 292.522 294.561Z" fill="#2F2E41"/>
<path id="Vector_37" d="M304.653 290.457C306.314 288.365 307.14 285.731 306.97 283.065C306.799 280.398 305.645 277.891 303.731 276.027C304.033 276.221 304.327 276.431 304.614 276.658C305.722 277.539 306.647 278.629 307.334 279.867C308.021 281.105 308.458 282.466 308.619 283.872C308.78 285.279 308.663 286.703 308.273 288.064C307.884 289.425 307.23 290.696 306.35 291.805C305.469 292.913 304.379 293.838 303.141 294.525C301.903 295.212 300.542 295.649 299.136 295.81C297.729 295.971 296.305 295.853 294.944 295.464C293.583 295.075 292.312 294.421 291.203 293.541C290.917 293.313 290.645 293.074 290.389 292.824C292.637 294.267 295.341 294.823 297.976 294.386C300.612 293.949 302.991 292.548 304.653 290.457Z" fill="#2F2E41"/>
<path id="Vector_38" d="M341.345 443.77L360.129 459.665C360.129 459.665 388.305 468.334 374.579 477.726C360.852 487.118 352.904 466.167 352.904 466.167L329.786 451.717L341.345 443.77Z" fill="#FFB9B9"/>
<path id="Vector_39" d="M300.887 374.413L303.054 372.968C303.054 372.968 311.724 372.968 313.169 381.638C314.614 390.308 318.948 408.369 318.948 408.369C318.948 408.369 333.398 417.039 331.953 432.933L347.125 445.938C347.125 445.938 329.063 451.717 332.675 456.775L305.944 432.211L305.222 385.25L300.887 374.413Z" fill="#2F2E41"/>
<path id="Vector_40" d="M292.217 357.797C281.843 357.797 273.433 349.387 273.433 339.012C273.433 328.638 281.843 320.228 292.217 320.228C302.591 320.228 311.001 328.638 311.001 339.012C311.001 349.387 302.591 357.797 292.217 357.797Z" fill="#FFB9B9"/>
<path id="Vector_41" d="M297.997 352.017C297.997 352.017 286.437 365.021 293.662 372.246C300.887 379.471 303.054 414.872 303.054 414.872L271.265 366.466C271.265 366.466 279.935 349.127 279.213 343.347L297.997 352.017Z" fill="#FFB9B9"/>
<path id="Vector_42" d="M300.164 402.59C300.164 402.59 282.825 364.506 273.433 361.874L248.869 367.911C248.869 367.911 268.376 435.101 266.208 441.603C264.041 448.105 251.759 457.497 256.094 514.572C256.094 514.572 200.464 616.44 214.19 633.78C227.917 651.119 279.213 664.123 279.935 659.066C280.658 654.009 303.777 575.982 300.164 552.141C300.164 552.141 300.164 655.454 304.499 657.621C308.834 659.789 378.191 675.683 376.023 663.401C373.856 651.119 339.178 516.017 339.178 516.017L312.446 432.211L311.724 419.929C311.724 419.929 323.283 411.982 314.614 393.92C305.944 375.858 303.054 372.968 303.054 372.968L292.646 371.014C292.646 371.014 302.332 397.532 300.164 402.59Z" fill="#5E9194"/>
<path id="Vector_43" d="M261.151 456.775L269.821 475.559C269.821 475.559 292.217 499.4 276.323 500.123C260.428 500.845 258.984 478.449 258.984 478.449L247.424 456.775H261.151Z" fill="#FFB9B9"/>
<path id="Vector_44" d="M258.261 368.634H248.869C248.869 368.634 245.979 364.299 243.089 382.36C240.199 400.422 241.644 427.876 241.644 427.876L245.979 463.999C245.979 463.999 261.151 458.22 264.763 459.665C268.376 461.11 264.763 458.942 264.763 458.942L258.261 434.378L266.208 398.977L258.261 368.634Z" fill="#2F2E41"/>
<path id="Vector_45" d="M294.118 311.315C306.388 314.648 314.758 323.153 312.813 330.31C311.943 333.513 309.149 335.896 305.234 337.261L301.799 333L301.643 338.171C301.1 338.263 300.548 338.346 299.98 338.406L295.616 329.216L293.128 338.373C291.084 338.155 289.06 337.774 287.076 337.233C274.807 333.9 266.437 325.395 268.381 318.238C270.326 311.081 281.849 307.981 294.118 311.315Z" fill="#2F2E41"/>
<path id="Vector_46" d="M273.072 338.651C271.875 338.651 270.904 337.034 270.904 335.039C270.904 333.044 271.875 331.426 273.072 331.426C274.269 331.426 275.239 333.044 275.239 335.039C275.239 337.034 274.269 338.651 273.072 338.651Z" fill="#FFB9B9"/>
<path id="Vector_47" d="M346.579 673C337.19 673 329.579 669.642 329.579 665.5C329.579 661.358 337.19 658 346.579 658C355.968 658 363.579 661.358 363.579 665.5C363.579 669.642 355.968 673 346.579 673Z" fill="#5E9194"/>
<path id="Vector_48" d="M254.303 669.428C242.591 664.812 234.738 656.904 236.763 651.766C238.788 646.628 249.925 646.205 261.637 650.822C273.349 655.438 281.202 663.346 279.176 668.484C277.151 673.622 266.015 674.045 254.303 669.428Z" fill="#5E9194"/>
<path id="Vector_49" d="M369.105 468.267C369.403 468.194 399.06 460.645 410.345 430.662C423.209 396.488 408.086 348.296 365.397 287.426C313.258 213.079 310.426 188.098 317.232 180.233C325.842 170.285 352.857 183.755 353.128 183.892L354.03 182.107C352.863 181.518 325.348 167.801 315.721 178.923C305.142 191.144 321.305 228.036 363.76 288.574C386.892 321.559 402.012 351.166 408.699 376.574C414.121 397.172 414.049 415.122 408.485 429.928C397.589 458.924 368.919 466.254 368.631 466.324L369.105 468.267Z" fill="#3F3D56"/>
<path id="Vector_50" d="M352.579 243H603.579V78.9999H352.579V243ZM601.579 241H354.579V80.9999H601.579V241Z" fill="#3F3D56"/>
<path id="Vector_51" d="M499.046 182.752C493.229 182.752 488.513 178.036 488.513 172.219C488.513 166.402 493.229 161.686 499.046 161.686C504.863 161.686 509.579 166.402 509.579 172.219C509.579 178.036 504.863 182.752 499.046 182.752Z" fill="#3F3D56"/>
<path id="Vector_52" d="M409.112 182.752C403.295 182.752 398.579 178.036 398.579 172.219C398.579 166.402 403.295 161.686 409.112 161.686C414.929 161.686 419.645 166.402 419.645 172.219C419.645 178.036 414.929 182.752 409.112 182.752Z" fill="#3F3D56"/>
<path id="Vector_53" d="M409.112 215.161C409.112 218.293 429.426 227.314 454.484 227.314C479.542 227.314 499.856 218.293 499.856 215.161C499.856 212.028 479.542 215.971 454.484 215.971C429.426 215.971 409.112 212.028 409.112 215.161Z" fill="#3F3D56"/>
</g>
<defs>
<clipPath id="clip0">
<rect width="1100" height="673.551" fill="white" transform="matrix(-1 0 0 1 1100 0)"/>
</clipPath>
</defs>
</svg>
