<svg width="898" height="775" viewBox="0 0 898 775" fill="none" xmlns="http://www.w3.org/2000/svg">
<g clip-path="url(#clip0)">
<path d="M640.295 175.454H633.913C632.655 175.454 631.635 176.515 631.635 177.824V266.84C631.635 268.148 632.655 269.209 633.913 269.209H640.295C641.553 269.209 642.573 268.148 642.573 266.84V177.824C642.573 176.515 641.553 175.454 640.295 175.454Z" fill="#3F3D56"/>
<path d="M598.743 0H310.411C288.987 0 271.619 18.0635 271.619 40.3459V733.102C271.619 755.384 288.987 773.448 310.411 773.448H598.743C620.168 773.448 637.536 755.384 637.536 733.102V40.3459C637.536 18.0635 620.168 0 598.743 0Z" fill="#E8DBD2"/>
<path d="M586.606 20.146H544.631V25.3975C544.631 28.6664 544.012 31.9032 542.809 34.923C541.606 37.9429 539.842 40.6866 537.619 42.9974C535.396 45.3082 532.757 47.1408 529.853 48.3905C526.949 49.6402 523.836 50.2825 520.693 50.2807H387.203C384.06 50.2825 380.947 49.6402 378.043 48.3905C375.139 47.1408 372.5 45.3082 370.277 42.9974C368.054 40.6866 366.29 37.9429 365.087 34.923C363.884 31.9032 363.265 28.6664 363.265 25.3975V20.146H323.964C316.257 20.146 308.865 23.3304 303.415 28.9986C297.965 34.6669 294.903 42.3547 294.903 50.3708V723.13C294.903 731.146 297.965 738.834 303.415 744.502C308.865 750.17 316.257 753.354 323.964 753.354H586.606C594.313 753.354 601.705 750.17 607.155 744.502C612.605 738.834 615.667 731.146 615.667 723.13V50.4225C615.673 46.449 614.927 42.5131 613.469 38.8401C612.012 35.1671 609.872 31.829 607.173 29.0169C604.473 26.2048 601.268 23.9739 597.738 22.4517C594.209 20.9295 590.426 20.146 586.606 20.146V20.146Z" fill="white"/>
<path d="M466.528 23.0982H423.132C421.006 23.0982 419.282 24.8911 419.282 27.1028V29.8791C419.282 32.0908 421.006 33.8837 423.132 33.8837H466.528C468.655 33.8837 470.379 32.0908 470.379 29.8791V27.1028C470.379 24.8911 468.655 23.0982 466.528 23.0982Z" fill="black"/>
<path d="M483.997 34.6163C487.249 34.6163 489.886 31.8742 489.886 28.4915C489.886 25.1089 487.249 22.3667 483.997 22.3667C480.744 22.3667 478.107 25.1089 478.107 28.4915C478.107 31.8742 480.744 34.6163 483.997 34.6163Z" fill="#E6E8EC"/>
<path d="M456.812 468.212C495.041 468.212 526.033 435.98 526.033 396.22C526.033 356.459 495.041 324.227 456.812 324.227C418.582 324.227 387.591 356.459 387.591 396.22C387.591 435.98 418.582 468.212 456.812 468.212Z" fill="white"/>
<path d="M547.857 386.167C547.856 405.197 542.43 423.8 532.263 439.623C522.097 455.447 507.647 467.779 490.742 475.061C473.837 482.343 455.235 484.248 437.288 480.535C419.342 476.821 402.857 467.657 389.919 454.2C376.981 440.743 368.17 423.597 364.601 404.932C361.032 386.267 362.864 366.92 369.867 349.339C376.87 331.757 388.729 316.73 403.943 306.157C419.158 295.585 437.045 289.942 455.343 289.943C467.493 289.943 479.523 292.433 490.748 297.268C501.972 302.104 512.171 309.192 520.761 318.128C529.352 327.063 536.167 337.67 540.816 349.344C545.465 361.019 547.857 373.531 547.857 386.167V386.167ZM444.649 437.098L513.277 365.723C513.832 365.147 514.273 364.462 514.573 363.709C514.874 362.955 515.029 362.147 515.029 361.332C515.029 360.516 514.874 359.708 514.573 358.954C514.273 358.201 513.832 357.517 513.277 356.94L504.833 348.223C504.28 347.645 503.623 347.187 502.899 346.875C502.176 346.562 501.4 346.401 500.617 346.401C499.833 346.401 499.057 346.562 498.334 346.875C497.61 347.187 496.953 347.645 496.4 348.223L440.427 406.438L414.292 379.192C413.17 378.032 411.652 377.381 410.07 377.381C408.488 377.381 406.97 378.032 405.848 379.192L397.404 388.026C396.288 389.193 395.662 390.772 395.662 392.417C395.662 394.063 396.288 395.641 397.404 396.808L436.207 437.15C436.76 437.728 437.419 438.186 438.143 438.499C438.868 438.811 439.644 438.972 440.429 438.972C441.213 438.972 441.99 438.811 442.714 438.499C443.439 438.186 444.097 437.728 444.651 437.15L444.649 437.098Z" fill="#5E9194"/>
<path d="M284.317 189.733H283.359C282.101 189.733 281.08 190.794 281.08 192.103V215.109C281.08 216.418 282.101 217.479 283.359 217.479H284.317C285.575 217.479 286.595 216.418 286.595 215.109V192.103C286.595 190.794 285.575 189.733 284.317 189.733Z" fill="#3F3D56"/>
<path d="M284.816 240.538H283.159C281.901 240.538 280.88 241.599 280.88 242.907V286.457C280.88 287.765 281.901 288.826 283.159 288.826H284.816C286.075 288.826 287.095 287.765 287.095 286.457V242.907C287.095 241.599 286.075 240.538 284.816 240.538Z" fill="#3F3D56"/>
<path d="M284.616 305.723H283.258C282 305.723 280.98 306.784 280.98 308.093V352.057C280.98 353.366 282 354.427 283.258 354.427H284.616C285.875 354.427 286.895 353.366 286.895 352.057V308.093C286.895 306.784 285.875 305.723 284.616 305.723Z" fill="#3F3D56"/>
<path d="M207.685 434.512C207.843 434.671 208.046 434.773 208.264 434.802C208.482 434.831 208.703 434.786 208.895 434.674C208.486 434.68 208.079 434.626 207.685 434.512Z" fill="url(#paint0_linear)"/>
<path d="M253.415 453.117L252.221 459.88L251.3 465.054L249.624 474.518L233.378 486.347C233.378 486.347 231.914 485.044 229.498 482.989C222.84 477.287 208.846 465.677 198.57 459.444C195.927 457.692 193.067 456.322 190.069 455.37L253.415 453.117Z" fill="#F4EFE4"/>
<path d="M241.497 458.149C241.497 458.149 260.439 461.53 261.549 453.117C262.658 444.703 251.798 440.156 242.595 439.59C233.392 439.024 178.155 442.972 178.155 442.972C178.155 442.972 168.411 456.487 203.601 458.749L241.497 458.149Z" fill="#3F3D56"/>
<path d="M282.922 180.511H183.826V302.722H282.922V180.511Z" fill="#2F2E41"/>
<path opacity="0.1" d="M282.922 181.066H183.826V303.277H282.922V181.066Z" fill="black"/>
<path d="M67.6857 389.72C66.054 390.147 63.9686 391.79 61.6494 394.163C51.6622 404.447 37.358 428.58 37.358 428.58C19.07 405.924 39.3071 388.023 47.9332 381.871C50.0305 380.382 51.4394 379.563 51.4394 379.563L67.6857 389.72Z" fill="#F4EFE4"/>
<path d="M252.328 219.083C252.328 219.083 257.203 254.561 273.989 263.009C290.774 271.457 252.328 287.245 252.328 287.245L199.806 266.955C199.806 266.955 229.59 256.815 223.631 226.964L252.328 219.083Z" fill="#F4EFE4"/>
<path d="M196.011 432.527L194.823 439.267L193.858 444.461L192.183 453.925L175.936 465.743C175.936 465.743 174.472 464.451 172.056 462.397C165.398 456.695 151.405 445.085 141.113 438.852C138.471 437.098 135.611 435.727 132.613 434.778L196.011 432.527Z" fill="#F4EFE4"/>
<path d="M181.958 440.839C181.958 440.839 198.958 440.964 199.981 432.527C201.004 424.089 190.716 419.566 181.958 419C173.199 418.434 119.984 422.645 119.984 422.645C119.984 422.645 112.434 438.58 145.907 440.838L181.958 440.839Z" fill="#2F2E41"/>
<path d="M301.154 573.389C300.411 573.008 299.667 572.616 298.935 572.235L296.937 569.615L270.737 535.06V535.661C270.56 541.432 268.674 587.158 253.958 591.382C238.256 595.884 219.314 597.015 210.679 566.604C202.043 536.193 186.266 469.737 170.063 465.791L194.166 445.236C194.166 445.236 210.123 464.648 216.625 483.23C216.382 482.076 205.362 428.524 214.406 419.049H293.478C293.478 419.049 305.685 455.208 314.052 473.12C320.566 487.027 330.342 519.908 336.637 542.16C342.868 564.132 320.974 583.533 301.154 573.389Z" fill="#5E9194"/>
<path opacity="0.1" d="M298.902 429.145C286.695 436.659 233.107 433.6 215.674 432.377L210.924 432.019C210.414 432.019 211.002 431.719 211.002 431.719L211.49 426.606L224.485 392.258L294.063 350.294C292.654 354.715 292.188 361.478 292.299 369.222C292.621 394.105 298.902 429.145 298.902 429.145Z" fill="black"/>
<path d="M298.902 427.449C286.695 434.963 233.107 431.904 215.674 430.681L210.924 430.334L210.136 430.265L211.002 430.034L215.285 428.88L224.484 390.586L294.062 348.633C292.654 353.054 292.187 359.817 292.298 367.561C292.621 392.421 298.902 427.449 298.902 427.449Z" fill="#EFEFEF"/>
<path opacity="0.1" d="M292.255 367.538C278.106 370.931 246.968 380.886 235.005 404.931C227.026 420.939 220.312 427.806 215.629 430.68L210.879 430.333C210.911 430.235 210.936 430.134 210.957 430.033L215.24 428.879L224.439 390.585L294.018 348.633C292.625 353.03 292.143 359.793 292.255 367.538Z" fill="black"/>
<path opacity="0.1" d="M51.4394 379.588L67.6858 389.721C66.0541 390.149 63.9687 391.791 61.6495 394.164C60.2954 390.055 51.7996 384.32 47.9332 381.873C50.0296 380.407 51.4394 379.588 51.4394 379.588Z" fill="black"/>
<path opacity="0.1" d="M207.984 430.992C207.806 431.089 207.604 431.125 207.405 431.096C207.206 431.067 207.021 430.974 206.875 430.831C207.235 430.94 207.609 430.995 207.984 430.992V430.992Z" fill="black"/>
<path d="M244.749 260.758C244.749 260.758 230.124 262.443 219.837 251.179C219.837 251.179 176.557 264.14 161.9 293.42C147.242 322.7 47.5999 380.153 47.5999 380.153C47.5999 380.153 64.9337 390.286 63.302 395.352L128.83 355.927C128.83 355.927 152.133 338.477 158.603 334.53C165.073 330.584 200.849 306.37 208.429 372.259C216.008 438.149 208.429 430.266 208.429 430.266C208.429 430.266 219.26 434.213 234.962 402.67C250.664 371.127 299.391 363.81 299.391 363.81L302.099 330.594C302.099 330.594 311.764 308.573 304.318 299.433C302.062 296.727 300.562 293.43 299.979 289.9C298.748 281.463 299.979 267.406 317.224 255.726C343.757 237.698 354.043 223.064 354.043 223.064C354.043 223.064 354.587 212.355 338.341 207.287C322.096 202.22 256.035 174.626 256.035 174.626L253.815 184.204L305.938 222.464C305.938 222.464 279.949 244.392 259.331 243.861C259.33 243.861 263.159 260.192 244.749 260.758Z" fill="#E8DBD2"/>
<path opacity="0.1" d="M254.78 234.525C253.5 230.01 252.499 225.415 251.784 220.767L223.087 228.652C224.353 234.35 224.126 240.296 222.433 245.872C228.3 247.5 234.499 247.292 240.252 245.274C246.006 243.255 251.06 239.516 254.78 234.525V234.525Z" fill="black"/>
<path d="M230.944 245.271C247.989 245.271 261.805 230.901 261.805 213.174C261.805 195.448 247.989 181.077 230.944 181.077C213.9 181.077 200.083 195.448 200.083 213.174C200.083 230.901 213.9 245.271 230.944 245.271Z" fill="#F4EFE4"/>
<path opacity="0.1" d="M264.513 471.663C264.513 471.663 282.379 508.272 276.963 519.524Z" fill="black"/>
<path d="M247.356 139.044C255.922 140.06 264.057 143.879 272.491 145.968C274.599 146.65 276.843 146.737 278.994 146.222C282.267 145.172 284.931 141.606 288.327 141.709C290.416 141.779 292.266 143.256 293.986 144.675C296.744 146.871 299.341 149.278 301.753 151.877C307.568 158.444 311.174 167.285 316.478 174.429C321.782 181.573 329.347 189.951 336.882 186.674C331.756 207.449 315.768 220.444 297.603 221.738C290.357 222.255 282.933 220.688 275.92 222.892C274.173 223.636 272.328 224.103 270.447 224.276C266.408 224.276 263.157 220.422 260.637 216.67C254.733 207.853 250.062 197.847 243.415 189.803C241.195 187.137 238.632 184.609 235.525 184.125C232.418 183.64 229.566 185.186 226.803 186.675C222.243 189.134 217.582 191.672 214.042 195.909C210.502 200.145 208.272 206.399 209.736 212.067C210.524 215.137 212.323 217.907 212.355 221.115C212.422 226.239 208.072 229.979 207.217 234.964C207.024 237.059 206.954 239.163 207.006 241.266C206.629 248.096 202.33 253.683 197.853 257.989C196.1 259.651 194.171 261.451 193.658 264.025C193.314 265.79 193.658 267.647 193.436 269.438C192.781 273.87 188.531 276.12 184.769 276.698C180.374 277.375 175.885 276.821 171.763 275.094C177.024 272.507 180.264 265.146 179.043 258.555C177.368 249.414 168.535 242.847 169.293 233.546C169.708 230.692 170.531 227.918 171.735 225.317C173.659 220.291 175.058 215.063 175.907 209.725C176.573 205.605 176.895 201.231 175.652 197.295C174.542 193.717 172.223 190.867 170.258 187.843C167.595 183.728 165.493 179.25 164.011 174.536C163.474 173.137 163.269 171.625 163.414 170.126C163.859 168.357 164.806 166.768 166.133 165.567C170.96 160.29 176.12 154.811 182.59 153.299C185.677 152.766 188.817 152.642 191.934 152.929C197.355 153.106 202.781 152.867 208.168 152.213C212.607 151.671 220.107 151.74 223.87 148.751C227.377 145.957 229.353 142.449 233.669 140.673C238.04 138.987 242.738 138.429 247.362 139.045L247.356 139.044Z" fill="#2F2E41"/>
<path d="M839.302 788.029C841.343 786.294 842.83 783.956 843.567 781.325C844.123 778.673 843.033 775.53 840.582 774.504C837.843 773.416 834.911 775.396 832.699 777.387C830.487 779.378 827.934 781.66 825.028 781.231C826.524 779.825 827.644 778.04 828.279 776.049C828.914 774.058 829.042 771.93 828.651 769.873C828.52 769.02 828.17 768.22 827.638 767.557C826.123 765.866 823.36 766.584 821.548 767.927C815.758 772.153 814.144 780.345 814.111 787.692C813.521 785.04 814.021 782.272 813.999 779.586C813.977 776.9 813.276 773.791 811.06 772.373C809.693 771.61 808.157 771.234 806.607 771.284C804.002 771.181 801.107 771.458 799.326 773.438C797.099 775.892 797.7 780.015 799.615 782.701C801.531 785.387 804.459 787.112 807.153 788.977C809.307 790.314 811.143 792.139 812.526 794.315C812.692 794.62 812.825 794.942 812.924 795.276H829.19C832.858 793.346 836.258 790.909 839.3 788.033L839.302 788.029Z" fill="#E8DBD2"/>
</g>
<defs>
<linearGradient id="paint0_linear" x1="208.296" y1="434.812" x2="208.296" y2="434.512" gradientUnits="userSpaceOnUse">
<stop stop-color="#808080" stop-opacity="0.251"/>
<stop offset="0.54" stop-color="#808080" stop-opacity="0.122"/>
<stop offset="1" stop-color="#808080" stop-opacity="0.102"/>
</linearGradient>
<clipPath id="clip0">
<rect width="898" height="775" fill="white"/>
</clipPath>
</defs>
</svg>
