<svg width="440" height="72" viewBox="0 0 440 72" fill="none" xmlns="http://www.w3.org/2000/svg">
<g id="searchBar">
<g id="Search bar" clip-path="url(#clip0)">
<rect id="Rectangle" width="440" height="72" rx="24" fill="white" stroke="#E7E7E7"/>
<path id="Search" d="M42.472 37.84C42.472 39.6 41.816 40.944 40.504 41.872C39.208 42.784 37.608 43.24 35.704 43.24C34.856 43.24 33.92 43.088 32.896 42.784C31.888 42.48 31.232 42.328 30.928 42.328C30.624 42.328 30.36 42.408 30.136 42.568C29.912 42.712 29.752 42.856 29.656 43L29.512 43.24H29.128V36.424H29.512C29.816 37.24 30.072 37.896 30.28 38.392C30.504 38.888 30.8 39.448 31.168 40.072C31.552 40.696 31.936 41.184 32.32 41.536C32.704 41.888 33.184 42.192 33.76 42.448C34.352 42.688 35.008 42.808 35.728 42.808C36.448 42.808 37.072 42.592 37.6 42.16C38.128 41.712 38.392 41.04 38.392 40.144C38.392 39.472 38.104 38.896 37.528 38.416C37.096 38.048 36.616 37.736 36.088 37.48C35.56 37.208 35.112 36.992 34.744 36.832C34.392 36.656 33.992 36.464 33.544 36.256C33.112 36.048 32.664 35.808 32.2 35.536C31.752 35.248 31.28 34.888 30.784 34.456C29.776 33.576 29.272 32.368 29.272 30.832C29.272 29.296 29.864 28.064 31.048 27.136C32.248 26.208 33.752 25.744 35.56 25.744C36.408 25.744 37.304 25.888 38.248 26.176C39.208 26.448 39.84 26.584 40.144 26.584C40.448 26.584 40.688 26.52 40.864 26.392C41.056 26.248 41.208 26.032 41.32 25.744H41.704V31.624H41.32C40.904 30.2 40.208 28.936 39.232 27.832C38.256 26.728 37.12 26.176 35.824 26.176C34.112 26.176 33.256 26.984 33.256 28.6C33.256 29.416 33.552 30.08 34.144 30.592C34.816 31.168 36.088 31.88 37.96 32.728C39.624 33.48 40.656 34.08 41.056 34.528C41.28 34.768 41.52 35.048 41.776 35.368C42.24 35.976 42.472 36.8 42.472 37.84ZM49.0139 38.224C49.0139 39.68 49.1899 40.784 49.5419 41.536C49.9099 42.288 50.5739 42.664 51.5339 42.664C52.5099 42.664 53.3499 42.352 54.0539 41.728C54.7739 41.104 55.2379 40.264 55.4459 39.208L55.4939 38.992L55.9259 39.064C55.7019 40.376 55.1499 41.4 54.2699 42.136C53.3899 42.872 52.2459 43.24 50.8379 43.24C48.7099 43.24 47.0619 42.736 45.8939 41.728C44.7259 40.704 44.1419 39.24 44.1419 37.336C44.1419 35.432 44.7019 33.952 45.8219 32.896C46.9419 31.824 48.4619 31.288 50.3819 31.288C51.9499 31.288 53.2539 31.584 54.2939 32.176C55.3499 32.752 55.8779 33.648 55.8779 34.864C55.8779 36.08 55.3899 36.944 54.4139 37.456C53.4379 37.968 52.1659 38.224 50.5979 38.224H49.0139ZM48.9899 36.064V37.792H49.5899C50.3099 37.792 50.8059 37.552 51.0779 37.072C51.3659 36.576 51.5099 35.856 51.5099 34.912C51.5099 32.784 51.1339 31.72 50.3819 31.72C49.8859 31.72 49.5259 32.008 49.3019 32.584C49.0939 33.16 48.9899 34.32 48.9899 36.064ZM64.3771 39.16V36.928C64.3131 36.928 64.2571 36.928 64.2091 36.928C63.4571 36.928 62.8251 37.136 62.3131 37.552C61.8011 37.952 61.5451 38.6 61.5451 39.496C61.5451 40.376 61.6731 41.024 61.9291 41.44C62.1851 41.84 62.5291 42.04 62.9611 42.04C63.3931 42.04 63.7371 41.736 63.9931 41.128C64.2491 40.52 64.3771 39.864 64.3771 39.16ZM69.3451 41.872C69.9531 41.872 70.3451 41.072 70.5211 39.472L70.9531 39.52C70.6491 42 69.5371 43.24 67.6171 43.24C66.8171 43.24 66.1691 42.976 65.6731 42.448C65.1771 41.904 64.8971 41.256 64.8331 40.504H64.6891C64.4651 41.368 64.0891 42.04 63.5611 42.52C63.0331 43 62.1931 43.24 61.0411 43.24C59.9051 43.24 58.9451 42.992 58.1611 42.496C57.3931 41.984 57.0091 41.176 57.0091 40.072C57.0091 37.688 59.4651 36.496 64.3771 36.496V35.704C64.3771 34.152 64.1851 33.128 63.8011 32.632C63.6251 32.408 63.3611 32.208 63.0091 32.032C62.6731 31.856 62.2651 31.768 61.7851 31.768C60.8731 31.768 60.0651 31.976 59.3611 32.392C58.6731 32.808 58.3291 33.264 58.3291 33.76C58.3291 33.904 58.4011 33.976 58.5451 33.976C58.6411 33.976 58.7051 33.952 58.7371 33.904C58.7691 33.84 58.7931 33.784 58.8091 33.736C58.8251 33.672 58.8411 33.624 58.8571 33.592C58.8731 33.544 58.9051 33.472 58.9531 33.376C59.0171 33.28 59.1611 33.152 59.3851 32.992C59.6091 32.832 59.9131 32.752 60.2971 32.752C60.6811 32.752 61.0091 32.928 61.2811 33.28C61.5691 33.616 61.7131 34.032 61.7131 34.528C61.7131 35.024 61.5291 35.448 61.1611 35.8C60.7931 36.136 60.3291 36.304 59.7691 36.304C59.2091 36.304 58.7291 36.112 58.3291 35.728C57.9451 35.328 57.7531 34.848 57.7531 34.288C57.7531 33.36 58.1771 32.632 59.0251 32.104C59.8731 31.56 61.0891 31.288 62.6731 31.288C64.2731 31.288 65.5451 31.496 66.4891 31.912C67.4331 32.328 68.0731 32.92 68.4091 33.688C68.7451 34.44 68.9131 35.48 68.9131 36.808V40.888C68.9131 41.544 69.0571 41.872 69.3451 41.872ZM77.2534 33.232H77.3734C77.6294 32.656 77.9894 32.192 78.4534 31.84C78.9174 31.472 79.4774 31.288 80.1334 31.288C80.8054 31.288 81.3734 31.512 81.8374 31.96C82.3174 32.392 82.5574 32.92 82.5574 33.544C82.5574 34.168 82.3734 34.688 82.0054 35.104C81.6374 35.52 81.1654 35.728 80.5894 35.728C80.0134 35.728 79.5414 35.56 79.1734 35.224C78.8214 34.888 78.6454 34.472 78.6454 33.976C78.6454 33.464 78.7894 33.048 79.0774 32.728C79.3814 32.392 79.7574 32.224 80.2054 32.224C80.6534 32.224 81.0134 32.384 81.2854 32.704C81.4134 32.944 81.5414 33.064 81.6694 33.064C81.8134 33.064 81.8854 32.992 81.8854 32.848C81.8854 32.752 81.8374 32.632 81.7414 32.488C81.3574 31.976 80.8134 31.72 80.1094 31.72C78.1414 31.72 77.1574 33.688 77.1574 37.624V42.4H78.9574V42.784H71.2294V42.4H72.7174V32.128H71.0134V31.744H72.4534C74.1974 31.744 75.7974 31.592 77.2534 31.288V33.232ZM90.0349 42.568C90.8189 42.568 91.4989 42.256 92.0749 41.632C92.6509 41.008 93.0269 40.232 93.2029 39.304L93.2509 39.064H93.6829C93.5389 40.296 93.0589 41.304 92.2429 42.088C91.4269 42.856 90.4189 43.24 89.2189 43.24C87.2669 43.24 85.7309 42.72 84.6109 41.68C83.4909 40.64 82.9309 39.176 82.9309 37.288C82.9309 35.384 83.4989 33.912 84.6349 32.872C85.7869 31.816 87.3309 31.288 89.2669 31.288C90.6269 31.288 91.6669 31.624 92.3869 32.296C93.1229 32.968 93.4909 33.672 93.4909 34.408C93.4909 35.144 93.2989 35.712 92.9149 36.112C92.5469 36.512 92.0749 36.712 91.4989 36.712C90.9229 36.712 90.4509 36.536 90.0829 36.184C89.7309 35.832 89.5549 35.408 89.5549 34.912C89.5549 34.4 89.6989 33.984 89.9869 33.664C90.2909 33.328 90.6829 33.16 91.1629 33.16C91.8349 33.16 92.2749 33.48 92.4829 34.12C92.5469 34.328 92.6349 34.432 92.7469 34.432C92.8909 34.432 92.9629 34.352 92.9629 34.192C92.9629 34.144 92.9469 34.056 92.9149 33.928C92.4669 32.616 91.5149 31.96 90.0589 31.96C89.6269 31.96 89.2589 32.08 88.9549 32.32C88.6509 32.544 88.4189 32.808 88.2589 33.112C88.1149 33.416 88.0029 33.832 87.9229 34.36C87.8269 35.016 87.7789 35.832 87.7789 36.808C87.7789 37.784 87.7869 38.52 87.8029 39.016C87.8349 39.512 87.8909 40.008 87.9709 40.504C88.0509 41 88.1709 41.384 88.3309 41.656C88.6829 42.264 89.2509 42.568 90.0349 42.568ZM95.9674 26.584H94.2634V26.2H95.7034C97.4474 26.2 99.0474 26.048 100.503 25.744V33.4H100.623C100.927 32.632 101.343 32.088 101.871 31.768C102.415 31.448 103.119 31.288 103.983 31.288C105.359 31.288 106.327 31.72 106.887 32.584C107.447 33.432 107.727 34.648 107.727 36.232V42.4H109.215V42.784H101.799V42.4H103.287V37.24C103.287 35.592 103.215 34.392 103.071 33.64C102.927 32.872 102.607 32.488 102.111 32.488C101.551 32.488 101.127 33 100.839 34.024C100.551 35.032 100.407 36.224 100.407 37.6V42.784H94.4794V42.4H95.9674V26.584Z" fill="#473889"/>
<g id="search">
<path id="Path" d="M413 46L409 42" stroke="#464185" stroke-width="2" stroke-linecap="round"/>
<circle id="Oval" cx="401" cy="34" r="8" stroke="#464185" stroke-width="2" stroke-linecap="square"/>
</g>
</g>
</g>
<defs>
<clipPath id="clip0">
<rect width="440" height="72" fill="white"/>
</clipPath>
</defs>
</svg>
