<svg viewBox="0 0 1034 664" fill="none" xmlns="http://www.w3.org/2000/svg">
<g id="shipping-bg">
<path id="Vector" opacity="0.1" d="M958.859 549.703C955.632 552.362 952.333 554.945 948.962 557.452C948.395 557.882 947.81 558.295 947.234 558.734C935.21 567.474 922.586 575.465 909.444 582.654L906.987 583.995C906.394 584.332 905.809 584.644 905.188 584.956C891.457 592.385 877.214 599.223 862.8 605.698L862.647 605.774L861.558 606.255C849.933 611.477 838.134 616.474 826.161 621.247L825.873 621.348C820.474 623.478 815.076 625.552 809.677 627.57C807.473 628.414 805.259 629.198 803.046 629.999C798.88 631.491 794.705 632.958 790.494 634.366L789.972 634.552L789.072 634.847L787.948 635.235C776.964 638.911 765.834 642.306 754.557 645.42L754.359 645.471C746.495 647.618 738.58 649.605 730.614 651.432L729.526 651.685C717.828 654.333 705.943 656.609 693.985 658.43L691.231 658.844C682.485 660.131 673.68 661.182 664.814 661.997C614.976 666.508 564.543 662.84 515.011 656.55C414.992 643.835 316.297 619.999 226.283 582.638C209.008 575.471 192.068 567.798 175.464 559.619C175.329 559.551 175.212 559.484 175.077 559.425C165.138 554.529 155.333 549.428 145.664 544.121C142.83 542.587 140.013 541.019 137.215 539.442C133.772 537.497 130.344 535.529 126.931 533.54C122.432 530.909 117.933 528.211 113.434 525.454L111.329 524.138L110.519 523.624C109.376 522.907 108.251 522.19 107.118 521.465C64.8284 494.484 27.119 461.785 9.30351 420.866C-11.2833 373.648 1.88939 313.783 52.8794 285.874C70.407 276.262 90.7778 271.043 111.365 266.734L113.47 266.296C116.952 265.579 120.434 264.887 123.898 264.196C136.036 261.785 148.237 259.39 160.321 256.717C166.62 255.326 172.855 253.867 179.054 252.29L181.592 251.633C196.543 247.874 211.165 243.048 225.33 237.198H225.42C226.94 236.565 228.443 235.908 229.918 235.233C230.872 234.811 231.826 234.39 232.78 233.926C248.076 226.793 264.272 216.902 276.734 205.115C277.732 204.171 278.704 203.209 279.649 202.248C280.378 201.498 281.097 200.739 281.79 199.98C290.527 190.435 296.574 179.837 297.725 168.589C298.113 164.809 297.931 160.997 297.185 157.265C295.773 150.191 294.405 143.268 293.397 136.514C291.517 123.824 290.878 111.691 293.487 99.9964C296.142 88.0739 302.161 76.5983 313.651 65.4684C315.385 63.7821 317.253 62.0957 319.257 60.4094C328.549 52.7699 339.063 46.5445 350.416 41.9607C351.819 41.3986 353.232 40.8365 354.654 40.2744C386.218 28.3013 424.143 25.8055 459.576 27.4581C492.68 29.0546 525.573 33.3428 557.885 40.2744C560.449 40.814 563.014 41.3789 565.56 41.9607C593.047 48.2003 620.092 56.0373 646.54 65.4263C715.264 89.6506 780.129 123.285 840.728 160.401C841.322 160.764 841.916 161.127 842.528 161.497C845.059 163.043 847.576 164.595 850.077 166.152C854.918 169.159 859.716 172.186 864.473 175.233L867.685 177.282C869.269 178.294 870.844 179.308 872.409 180.326L877.232 183.454C877.459 183.582 877.676 183.725 877.88 183.884L881.983 186.548C884.358 188.1 886.716 189.66 889.082 191.228L894.157 194.601C895.209 195.309 896.271 196.009 897.324 196.725L902.723 200.418L903.928 201.262C904.18 201.43 904.432 201.599 904.675 201.784L904.828 201.877C919.458 211.936 933.738 222.366 947.117 233.42L948.845 234.854L949.025 235.005C950.482 236.22 951.94 237.451 953.371 238.69C970.844 253.597 986.5 269.618 999.295 287.324C1058.07 369.112 1040.62 482.359 958.859 549.703Z" fill="#D6B7A0"/>
<path id="Vector_2" d="M707.53 255.36C707.745 255.36 707.92 255.185 707.92 254.97C707.92 254.755 707.745 254.58 707.53 254.58C707.315 254.58 707.14 254.755 707.14 254.97C707.14 255.185 707.315 255.36 707.53 255.36Z" fill="#E6E8EC"/>
<path id="Vector_3" d="M393.26 474.39C393.26 474.39 404.26 466.5 415.69 471.39C415.69 471.39 412.49 478.17 398.29 478.08L393.26 474.39Z" fill="#D6B7A0"/>
<path id="Vector_4" d="M391.89 474.85C391.89 474.85 388.95 488.08 397.89 496.66C397.89 496.66 402.89 491.06 397.22 478.03L391.89 474.85Z" fill="#D6B7A0"/>
<path id="Vector_5" d="M377.31 462.81C377.31 462.81 377.72 451.64 403.01 454.37C403.01 454.37 403.41 461.56 394.71 465.3C386.01 469.04 381.86 466.33 377.31 462.81Z" fill="#D6B7A0"/>
<path id="Vector_6" d="M375.76 462.76C375.76 462.76 365.26 466.58 375.64 489.81C375.64 489.81 382.64 487.97 383.48 478.54C384.32 469.11 380.5 466.04 375.76 462.76Z" fill="#D6B7A0"/>
<path id="Vector_7" d="M360.92 447.54C360.92 447.54 358.78 429.27 384.56 430.16C384.56 430.16 387.02 446.68 365.63 451.77L360.92 447.54Z" fill="#D6B7A0"/>
<path id="Vector_8" d="M343.14 427.5C343.14 427.5 345.87 406.59 371.8 411.8C371.8 411.8 372.58 429.8 347.52 432.29L343.14 427.5Z" fill="#D6B7A0"/>
<path id="Vector_9" d="M329.91 406.58C329.91 406.58 335.03 386.08 360.72 391.21C360.72 391.21 355.36 409.63 331.72 410.21L329.91 406.58Z" fill="#D6B7A0"/>
<path id="Vector_10" d="M317.32 386.14C317.32 386.14 322.32 364.92 347.09 370.29C347.09 370.29 339.65 390.55 319.09 389.66L317.32 386.14Z" fill="#D6B7A0"/>
<path id="Vector_11" d="M308.95 366.59C308.95 366.59 312.4 340.76 335.56 345.54C335.56 345.54 329.8 369.16 310.8 370.26L308.95 366.59Z" fill="#D6B7A0"/>
<path id="Vector_12" d="M300.91 342.88C300.91 342.88 305.24 316.79 328.69 323.43C328.69 323.43 320.54 348.24 302.69 346.43L300.91 342.88Z" fill="#D6B7A0"/>
<path id="Vector_13" d="M295.64 320.76C295.64 320.76 303.1 294.55 321.06 294.56C321.06 294.56 313.46 322.23 297.34 325.89L295.64 320.76Z" fill="#D6B7A0"/>
<path id="Vector_14" d="M292.01 299.07C292.01 299.07 300.01 267.56 314.69 269.4C314.69 269.4 309.24 293.46 292.69 303.9L292.01 299.07Z" fill="#D6B7A0"/>
<path id="Vector_15" d="M289.42 273.12C289.42 273.12 297.04 246.82 311.42 245.24C311.42 245.24 306.53 271.01 290.01 279.85L289.42 273.12Z" fill="#D6B7A0"/>
<path id="Vector_16" d="M286.75 248.97C286.75 248.97 296.5 222.57 306 221.62C306 221.62 302.31 247.39 287.86 253.2L286.75 248.97Z" fill="#D6B7A0"/>
<path id="Vector_17" d="M284.69 226.47C284.69 226.47 290.22 197.98 299.63 195.28C299.63 195.28 299.22 218.42 285.73 228.54L284.69 226.47Z" fill="#D6B7A0"/>
<path id="Vector_18" d="M279.98 197.1C279.98 197.1 286.07 174.33 293.64 170.61C293.64 170.61 293.13 197.19 281.98 202.53L279.98 197.1Z" fill="#D6B7A0"/>
<path id="Vector_19" d="M276.27 177.83L273.35 138.2C273.35 138.2 288.86 167.6 277.56 184.76L276.27 177.83Z" fill="#D6B7A0"/>
<path id="Vector_20" d="M263.64 138.82C263.64 138.82 252.18 110.25 249.64 108.73C249.64 108.73 270.64 126.73 269.64 151L263.64 138.82Z" fill="#D6B7A0"/>
<path id="Vector_21" d="M360.21 447.43C360.21 447.43 341.89 445.75 343.42 471.49C343.42 471.49 360 473.49 364.56 452.03L360.21 447.43Z" fill="#D6B7A0"/>
<path id="Vector_22" d="M342.25 426.84C342.25 426.84 321.18 427.58 323.91 453.84C323.91 453.84 341.71 456.32 346.6 431.62L342.25 426.84Z" fill="#D6B7A0"/>
<path id="Vector_23" d="M329.77 408.3C329.77 408.3 310.3 400.06 298.95 423.67C298.95 423.67 316.9 430.47 331.6 411.97L329.77 408.3Z" fill="#D6B7A0"/>
<path id="Vector_24" d="M316.9 386.35C316.9 386.35 296.95 377.56 286.32 400.61C286.32 400.61 306.99 406.85 318.65 389.87L316.9 386.35Z" fill="#D6B7A0"/>
<path id="Vector_25" d="M309.22 367.14C309.22 367.14 289.69 349.86 275.35 368.64C275.35 368.64 295.17 382.71 310.24 371.11L309.22 367.14Z" fill="#D6B7A0"/>
<path id="Vector_26" d="M301.96 342.23C301.96 342.23 282.29 324.54 268.11 344.37C268.11 344.37 289.97 358.66 302.78 346.06L301.96 342.23Z" fill="#D6B7A0"/>
<path id="Vector_27" d="M297.56 319.93C297.56 319.93 282.07 297.51 265.08 303.29C265.08 303.29 281.16 327.05 297.6 325.29L297.56 319.93Z" fill="#D6B7A0"/>
<path id="Vector_28" d="M292.43 298.91C292.43 298.91 276.6 270.51 262.88 276.07C262.88 276.07 274.34 297.92 293 303.76L292.43 298.91Z" fill="#D6B7A0"/>
<path id="Vector_29" d="M290.37 271.6C290.37 271.6 274.37 249.39 260.31 252.72C260.31 252.72 273.55 275.35 292.09 278.14L290.37 271.6Z" fill="#D6B7A0"/>
<path id="Vector_30" d="M288.33 248.4C288.33 248.4 275.63 223.28 266.08 223.4C266.08 223.4 272.69 248.58 287.7 252.71L288.33 248.4Z" fill="#D6B7A0"/>
<path id="Vector_31" d="M285.14 225.89C285.14 225.89 271.14 200.49 261.32 200.82C261.32 200.82 268.84 222.71 284.79 228.19L285.14 225.89Z" fill="#D6B7A0"/>
<path id="Vector_32" d="M282.13 198.6C282.13 198.6 271.56 177.54 263.4 175.43C263.4 175.43 269.27 201.36 281.28 204.33L282.13 198.6Z" fill="#D6B7A0"/>
<path id="Vector_33" d="M275.08 177.12L252.02 144.76C252.02 144.76 258.86 177.28 278.5 183.31L275.08 177.12Z" fill="#D6B7A0"/>
<path id="Vector_34" d="M258.75 141.68C258.75 141.68 232.75 125.17 231.75 122.39C231.75 122.39 245.61 146.39 269.65 149.78L258.75 141.68Z" fill="#D6B7A0"/>
<path id="Vector_35" d="M256.93 133.88C256.93 133.88 226.79 107.05 219.37 107.36C219.37 107.36 243.37 107.54 257.57 132.36L256.93 133.88Z" fill="#D6B7A0"/>
<path id="Vector_36" d="M282.01 202.76L280.95 202.94C273.85 160.39 264.95 135.42 255.8 132.64L256.11 131.64C265.78 134.56 274.73 159.17 282.01 202.76Z" fill="#444053"/>
<path id="Vector_37" d="M293.95 304.7L292.36 304.9C291.87 300.9 291.46 296.84 291.12 292.78C288.24 257.44 284.63 225.03 280.59 200.78L281.47 199.6C285.47 223.89 289.84 257.26 292.73 292.6C293.05 296.69 293.47 300.76 293.95 304.7Z" fill="#444053"/>
<path id="Vector_38" d="M423.9 493.61C423.61 493.49 394.96 482 364.57 453.11C346.777 436.205 331.775 416.589 320.12 394.99C305.55 367.99 296.01 334.47 291.99 301.71L293.69 302.43C302.69 375.95 338.23 425.09 365.98 451.49C396.07 480.12 424.4 491.49 424.68 491.62L423.9 493.61Z" fill="#444053"/>
<g id="Group" opacity="0.7">
<path id="Vector_39" opacity="0.7" d="M443.81 460.99C443.81 460.99 456.67 456.74 466.11 464.78C466.11 464.78 461.04 470.31 447.51 465.99L443.81 460.99Z" fill="#D6B7A0"/>
<path id="Vector_40" opacity="0.7" d="M442.36 461.01C442.36 461.01 435.62 472.77 441.62 483.63C441.62 483.63 448.05 479.76 446.52 465.63L442.36 461.01Z" fill="#D6B7A0"/>
<path id="Vector_41" opacity="0.7" d="M432.02 445.19C432.02 445.19 435.74 434.64 459.02 444.78C459.02 444.78 457.26 451.78 447.84 452.78C438.42 453.78 435.32 449.9 432.02 445.19Z" fill="#D6B7A0"/>
<path id="Vector_42" opacity="0.7" d="M430.56 444.76C430.56 444.76 419.39 445.29 422.4 470.55C422.4 470.55 429.58 470.87 433.23 462.13C436.88 453.39 434.11 449.22 430.56 444.76Z" fill="#D6B7A0"/>
<path id="Vector_43" opacity="0.7" d="M420.91 425.76C420.91 425.76 424.31 407.68 448.65 416.2C448.65 416.2 446.08 432.7 424.15 431.2L420.91 425.76Z" fill="#D6B7A0"/>
<path id="Vector_44" opacity="0.7" d="M409.9 401.31C409.9 401.31 418.73 382.16 441.9 394.85C441.9 394.85 437.31 412.22 412.63 407.18L409.9 401.31Z" fill="#D6B7A0"/>
<path id="Vector_45" opacity="0.7" d="M403.49 377.4C403.49 377.4 414.49 359.35 437.49 371.89C437.49 371.89 426.89 387.89 404.15 381.45L403.49 377.4Z" fill="#D6B7A0"/>
<path id="Vector_46" opacity="0.7" d="M397.56 354.14C397.56 354.14 408.62 335.36 430.71 347.86C430.71 347.86 417.58 364.99 398.19 358.02L397.56 354.14Z" fill="#D6B7A0"/>
<path id="Vector_47" opacity="0.7" d="M395.39 332.98C395.39 332.98 406.39 309.33 427.03 320.8C427.03 320.8 414.5 341.63 396.03 337.03L395.39 332.98Z" fill="#D6B7A0"/>
<path id="Vector_48" opacity="0.7" d="M394.76 307.96C394.76 307.96 406.66 284.34 427.07 297.66C427.07 297.66 411.9 318.92 395.39 311.83L394.76 307.96Z" fill="#D6B7A0"/>
<path id="Vector_49" opacity="0.7" d="M396.32 285.25C396.32 285.25 411.24 262.45 428.38 267.8C428.38 267.8 412.89 291.96 396.38 290.66L396.32 285.25Z" fill="#D6B7A0"/>
<path id="Vector_50" opacity="0.7" d="M399.3 263.48C399.3 263.48 416.3 235.77 429.78 241.91C429.78 241.91 417.41 263.25 398.53 268.3L399.3 263.48Z" fill="#D6B7A0"/>
<path id="Vector_51" opacity="0.7" d="M404.56 237.93C404.56 237.93 419.66 215.1 433.84 217.86C433.84 217.86 421.51 241.01 403.1 244.54L404.56 237.93Z" fill="#D6B7A0"/>
<path id="Vector_52" opacity="0.7" d="M409.18 214.09C409.18 214.09 426.35 191.78 435.7 193.7C435.7 193.7 424.51 217.2 408.99 218.46L409.18 214.09Z" fill="#D6B7A0"/>
<path id="Vector_53" opacity="0.7" d="M413.91 191.99C413.91 191.99 427.66 166.44 437.46 166.66C437.46 166.66 430.18 188.66 414.28 194.28L413.91 191.99Z" fill="#D6B7A0"/>
<path id="Vector_54" opacity="0.7" d="M418.16 162.55C418.16 162.55 430.74 142.63 439.08 141.32C439.08 141.32 430.68 166.55 418.45 168.32L418.16 162.55Z" fill="#D6B7A0"/>
<path id="Vector_55" opacity="0.7" d="M420.34 143.04L429.34 104.35C429.34 104.35 435.41 137.02 419.54 150.08L420.34 143.04Z" fill="#D6B7A0"/>
<path id="Vector_56" opacity="0.7" d="M419.89 102.05C419.89 102.05 417.45 71.3599 415.46 69.1499C415.46 69.1499 430.19 92.6099 421.96 115.45L419.89 102.05Z" fill="#D6B7A0"/>
<path id="Vector_57" opacity="0.7" d="M420.27 425.42C420.27 425.42 403.27 418.35 397.09 443.42C397.09 443.42 412.3 450.31 423.09 431.13L420.27 425.42Z" fill="#D6B7A0"/>
<path id="Vector_58" opacity="0.7" d="M409.25 400.41C409.25 400.41 388.92 394.85 383.7 420.77C383.7 420.77 399.95 428.44 411.98 406.31L409.25 400.41Z" fill="#D6B7A0"/>
<path id="Vector_59" opacity="0.7" d="M402.85 379C402.85 379 386.72 365.34 368.85 384.51C368.85 384.51 383.96 396.34 403.5 383.05L402.85 379Z" fill="#D6B7A0"/>
<path id="Vector_60" opacity="0.7" d="M397.09 354.22C397.09 354.22 380.67 339.89 363.66 358.76C363.66 358.76 381.53 370.86 397.72 358.11L397.09 354.22Z" fill="#D6B7A0"/>
<path id="Vector_61" opacity="0.7" d="M395.48 333.59C395.48 333.59 381.97 311.28 362.7 324.94C362.7 324.94 377.43 344.28 395.27 337.68L395.48 333.59Z" fill="#D6B7A0"/>
<path id="Vector_62" opacity="0.7" d="M395.96 307.64C395.96 307.64 382.44 284.91 362.96 299.64C362.96 299.64 379.58 319.79 395.56 311.57L395.96 307.64Z" fill="#D6B7A0"/>
<path id="Vector_63" opacity="0.7" d="M398.38 285.04C398.38 285.04 390.27 259.04 372.32 259.49C372.32 259.49 380.61 286.97 396.82 290.22L398.38 285.04Z" fill="#D6B7A0"/>
<path id="Vector_64" opacity="0.7" d="M399.75 263.45C399.75 263.45 393.08 231.63 378.33 232.86C378.33 232.86 382.77 257.13 398.85 268.25L399.75 263.45Z" fill="#D6B7A0"/>
<path id="Vector_65" opacity="0.7" d="M405.91 236.76C405.91 236.76 397.24 210.76 382.82 209.76C382.82 209.76 388.74 235.32 405.6 243.49L405.91 236.76Z" fill="#D6B7A0"/>
<path id="Vector_66" opacity="0.7" d="M410.86 214.01C410.86 214.01 406.21 186.25 397.05 183.54C397.05 183.54 395.87 209.54 408.98 217.96L410.86 214.01Z" fill="#D6B7A0"/>
<path id="Vector_67" opacity="0.7" d="M414.56 191.57C414.56 191.57 408.73 163.15 399.28 160.57C399.28 160.57 399.94 183.7 413.55 193.68L414.56 191.57Z" fill="#D6B7A0"/>
<path id="Vector_68" opacity="0.7" d="M419.76 164.63C419.76 164.63 415.93 141.38 408.76 136.92C408.76 136.92 406.65 163.43 417.23 169.84L419.76 164.63Z" fill="#D6B7A0"/>
<path id="Vector_69" opacity="0.7" d="M419.42 142.02L407.03 104.27C407.03 104.27 403.88 137.36 420.84 148.96L419.42 142.02Z" fill="#D6B7A0"/>
<path id="Vector_70" opacity="0.7" d="M414.37 103.33C414.37 103.33 394.46 79.8296 394.37 76.8696C394.37 76.8696 400.46 103.87 422.37 114.29L414.37 103.33Z" fill="#D6B7A0"/>
<path id="Vector_71" opacity="0.7" d="M414.95 95.3398C414.95 95.3398 394.16 60.7498 386.95 58.8398C386.95 58.8398 409.83 66.1598 415.95 94.0798L414.95 95.3398Z" fill="#D6B7A0"/>
<path id="Vector_72" opacity="0.7" d="M418.4 168.56L417.34 168.41C423.22 125.68 422.12 99.1797 414.24 93.8097L414.85 92.9297C423.2 98.6197 424.43 124.76 418.4 168.56Z" fill="#444053"/>
<path id="Vector_73" opacity="0.7" d="M399.48 269.44L397.9 269.15C398.62 265.2 399.43 261.15 400.33 257.21C408.09 222.62 414.33 190.6 417.64 166.21L418.83 165.35C415.47 189.74 409.67 222.89 401.89 257.52C401.01 261.52 400.19 265.51 399.48 269.44Z" fill="#444053"/>
<path id="Vector_74" opacity="0.7" d="M467.34 488.45C467.1 488.26 443.16 468.75 422.75 432.14C410.771 410.71 402.269 387.515 397.56 363.42C391.68 333.3 392.56 298.42 398.45 266L399.86 267.19C386.61 340.07 405.86 397.55 424.53 431.01C444.74 467.29 468.4 486.59 468.64 486.78L467.34 488.45Z" fill="#444053"/>
</g>
<g id="Group_2" opacity="0.5">
<path id="Vector_75" opacity="0.5" d="M674.78 561.01C674.78 561.01 644.2 559.17 647.78 580.6C647.596 581.686 647.76 582.803 648.249 583.791C648.737 584.778 649.525 585.587 650.5 586.1C650.5 586.1 650.5 584.51 653.63 585.05C654.729 585.238 655.848 585.291 656.96 585.21C658.46 585.112 659.886 584.526 661.02 583.54V583.54C661.02 583.54 669.61 579.99 672.96 565.93C672.96 565.93 675.43 562.87 675.33 562.08L670.17 564.29C670.17 564.29 671.94 568.01 670.55 571.1C670.55 571.1 670.38 564.42 669.39 564.58C669.19 564.58 666.71 565.87 666.71 565.87C666.71 565.87 669.71 572.35 667.45 577.07C667.45 577.07 668.32 569.07 665.76 566.34L662.13 568.46C662.13 568.46 665.67 575.16 663.27 580.62C663.27 580.62 663.89 572.24 661.36 568.98L658.07 571.54C658.07 571.54 661.4 578.14 659.37 582.68C659.37 582.68 659.11 572.92 657.37 572.18C657.37 572.18 654.49 574.72 654.05 575.77C654.05 575.77 656.33 580.56 654.92 583.09C654.92 583.09 654.05 576.58 653.34 576.56C653.34 576.56 650.47 580.86 650.17 583.81C650.308 581.081 651.16 578.437 652.64 576.14C650.986 576.457 649.461 577.249 648.25 578.42C648.25 578.42 648.69 575.42 653.35 575.1C653.35 575.1 655.72 571.84 656.35 571.64C656.35 571.64 651.72 571.25 648.91 572.5C648.91 572.5 651.38 569.62 657.19 570.93L660.44 568.28C660.44 568.28 654.35 567.44 651.76 568.36C651.76 568.36 654.76 565.82 661.32 567.67L664.86 565.56C664.86 565.56 659.66 564.44 656.56 564.84C656.56 564.84 659.83 563.08 665.9 564.99L668.43 563.85C668.43 563.85 664.62 563.1 663.5 562.99C662.38 562.88 662.33 562.56 662.33 562.56C664.742 562.161 667.216 562.438 669.48 563.36C669.48 563.36 674.87 561.35 674.78 561.01Z" fill="#D6B7A0"/>
</g>
<g id="Group_3" opacity="0.5">
<path id="Vector_76" opacity="0.5" d="M619.91 411.35C619.91 411.35 604.38 437.76 625.12 444.28C626.005 444.938 627.075 445.299 628.177 445.314C629.279 445.328 630.358 444.994 631.26 444.36C631.26 444.36 629.87 443.59 631.74 441.09C632.404 440.195 632.961 439.225 633.4 438.2C633.984 436.815 634.106 435.28 633.75 433.82V433.82C633.75 433.82 634.48 424.55 623.48 415.19C623.48 415.19 621.87 411.59 621.13 411.32L620.75 416.92C620.75 416.92 624.86 417.04 626.99 419.68C626.99 419.68 620.99 416.8 620.65 417.75C620.59 417.95 620.58 420.75 620.58 420.75C620.58 420.75 627.74 420.99 630.9 425.17C630.9 425.17 624.18 420.77 620.57 421.81L620.81 426.01C620.81 426.01 628.39 425.89 632.17 430.51C632.17 430.51 624.98 426.15 620.93 426.92L621.72 431.02C621.72 431.02 629.12 431.02 632.23 434.91C632.23 434.91 623.42 430.72 621.97 431.91C621.97 431.91 622.97 435.63 623.65 436.5C623.65 436.5 628.96 436.64 630.57 439.05C630.57 439.05 624.38 436.87 624.03 437.49C624.03 437.49 626.57 442 629.03 443.61C626.662 442.245 624.694 440.283 623.32 437.92C622.826 439.55 622.826 441.29 623.32 442.92C623.32 442.92 620.81 441.14 622.69 436.92C622.69 436.92 620.85 433.33 620.96 432.67C620.96 432.67 618.52 436.62 618.35 439.67C618.35 439.67 616.91 436.16 620.71 431.57L619.83 427.47C619.83 427.47 616.32 432.53 615.96 435.25C615.96 435.25 615.05 431.44 619.69 426.42L619.41 422.31C619.41 422.31 616.05 426.43 615.01 429.37C615.01 429.37 614.92 425.66 619.37 421.12L619.51 418.35C619.51 418.35 617.11 421.41 616.51 422.35C615.91 423.29 615.6 423.2 615.6 423.2C616.334 420.872 617.702 418.795 619.55 417.2C619.55 417.2 620.25 411.42 619.91 411.35Z" fill="#D6B7A0"/>
</g>
<g id="Group_4" opacity="0.5">
<path id="Vector_77" opacity="0.5" d="M522.78 200.64C522.78 200.64 507.26 227.06 527.99 233.57C528.874 234.231 529.944 234.594 531.047 234.608C532.15 234.623 533.229 234.287 534.13 233.65C534.13 233.65 532.74 232.88 534.62 230.38C535.281 229.485 535.835 228.515 536.27 227.49C536.859 226.107 536.982 224.569 536.62 223.11V223.11C536.62 223.11 537.36 213.84 526.35 204.48C526.35 204.48 524.74 200.89 524 200.62L523.62 206.21C523.62 206.21 527.74 206.33 529.86 208.97C529.86 208.97 523.86 206.09 523.53 207.04C523.46 207.24 523.46 210.04 523.46 210.04C523.46 210.04 530.61 210.28 533.77 214.46C533.77 214.46 527.05 210.06 523.44 211.1L523.69 215.3C523.69 215.3 531.26 215.18 535.04 219.8C535.04 219.8 527.85 215.45 523.8 216.21L524.59 220.31C524.59 220.31 531.99 220.31 535.11 224.21C535.11 224.21 526.29 220.01 524.84 221.21C524.84 221.21 525.84 224.92 526.53 225.79C526.53 225.79 531.83 225.93 533.44 228.34C533.44 228.34 527.25 226.16 526.91 226.78C526.91 226.78 529.44 231.3 531.91 232.9C529.54 231.538 527.568 229.58 526.19 227.22C525.712 228.832 525.712 230.548 526.19 232.16C526.19 232.16 523.68 230.38 525.56 226.11C525.56 226.11 523.72 222.52 523.83 221.86C523.83 221.86 521.39 225.81 521.22 228.86C521.22 228.86 519.78 225.35 523.59 220.76L522.7 216.66C522.7 216.66 519.19 221.72 518.84 224.44C518.84 224.44 517.92 220.63 522.56 215.61L522.28 211.5C522.28 211.5 518.92 215.62 517.88 218.56C517.88 218.56 517.79 214.85 522.24 210.32L522.38 207.54C522.38 207.54 519.98 210.6 519.38 211.54C518.78 212.48 518.47 212.39 518.47 212.39C519.222 210.058 520.606 207.981 522.47 206.39C522.47 206.39 523.12 200.76 522.78 200.64Z" fill="#D6B7A0"/>
</g>
<g id="Group_5" opacity="0.5">
<path id="Vector_78" opacity="0.5" d="M188.42 0.549805C188.42 0.549805 130.62 42.5498 168.88 75.8198C168.88 75.8198 173.21 83.6998 181.94 81.7098C181.94 81.7098 179.68 78.7698 186.03 75.1698C188.281 73.8765 190.369 72.3188 192.25 70.5298C194.794 68.1336 196.49 64.9745 197.08 61.5298V61.5298C197.08 61.5298 207.3 42.3898 192.49 12.1298C192.49 12.1298 192.4 2.93981 191.05 1.66981L185.05 13.2898C185.05 13.2898 193.74 17.3798 195.83 25.0098C195.83 25.0098 185.62 13.2198 184.07 15.0098C183.76 15.3598 181.15 21.3098 181.15 21.3098C181.15 21.3098 196.24 28.4898 199.1 40.3698C199.1 40.3698 188.82 24.6898 180.1 23.5498L176.71 32.7598C176.71 32.7598 193.02 39.5698 196.8 52.9698C196.8 52.9698 185.48 36.9698 176.1 34.8198L173.98 44.3298C173.98 44.3298 189.76 51.2798 192.83 62.4498C192.83 62.4498 177.83 45.2698 173.64 46.5398C173.64 46.5398 172.22 55.3798 172.97 57.9098C172.97 57.9098 184.19 63.1598 185.39 69.8098C185.39 69.8098 174.18 59.3898 172.86 60.3898C172.86 60.3898 174.08 72.3898 177.92 78.1598C177.92 78.1598 171.63 70.0698 170.99 60.6798C170.99 60.6798 166.7 65.6798 166.46 71.2898C166.46 71.2898 162.74 65.1398 170.73 57.7598C170.73 57.7598 170.16 48.3598 171.01 47.0598C171.01 47.0598 162.09 53.2298 158.88 59.6298C158.88 59.6298 159.07 50.7898 171.48 44.5198L173.4 34.9298C173.4 34.9298 161.19 42.4598 157.9 47.9298C157.9 47.9298 159.49 38.9298 174.08 32.5098L177.32 23.4598C177.32 23.4598 166.32 29.1498 161.32 34.4598C161.32 34.4598 164.59 26.4598 178.32 20.8898L181.19 15.0898C181.19 15.0898 173.19 19.3898 171.04 20.8298C168.89 22.2698 168.29 21.8298 168.29 21.8298C172.036 17.5287 176.904 14.3538 182.35 12.6598C182.35 12.6598 189.09 1.0198 188.42 0.549805Z" fill="#D6B7A0"/>
</g>
<g id="Group_6" opacity="0.5">
<path id="Vector_79" opacity="0.5" d="M132.27 139.14C132.27 139.14 57.5 107.7 47.7 164.39C47.7 164.39 42.59 173.23 49.7 180.53C49.7 180.53 51.23 176.61 58.46 180.66C61.0388 182.086 63.778 183.201 66.62 183.98C70.4581 185.039 74.5364 184.821 78.24 183.36V183.36C78.24 183.36 102.82 182.03 123.51 149.86C123.51 149.86 132.37 144.38 132.82 142.32L117.99 143.32C117.99 143.32 119.13 154.17 112.99 160.68C112.99 160.68 118.44 143.84 115.82 143.37C115.29 143.27 107.99 144.23 107.99 144.23C107.99 144.23 109.88 163.1 99.99 172.86C99.99 172.86 109.17 153.67 105.17 144.57L94.24 146.68C94.24 146.68 97.24 166.53 86.42 178.07C86.42 178.07 95.31 157.67 91.88 147.31L81.4 150.83C81.4 150.83 83.93 170.24 74.88 179.83C74.88 179.83 82.78 155.22 79.06 151.83C79.06 151.83 69.64 155.65 67.62 157.83C67.62 157.83 69.12 171.83 63.36 176.88C63.36 176.88 66.9 159.88 65.15 159.18C65.15 159.18 54.2 167.42 50.86 174.53C50.86 174.53 55.03 163.67 63.77 157.53C63.77 157.53 56.43 156.28 50.77 159.36C50.77 159.36 54.56 152.15 66.42 155.57C66.42 155.57 75.21 149.48 76.97 149.57C76.97 149.57 65.75 144.57 57.64 145.19C57.64 145.19 66.33 140.19 79.71 148.54L90.14 144.76C90.14 144.76 75.65 137.33 68.38 137.36C68.38 137.36 78.04 133.62 92.86 144.02L103.56 141.81C103.56 141.81 91.56 134.46 83.46 132.76C83.46 132.76 93.17 131.22 106.64 141.31L113.96 140.7C113.96 140.7 105.1 135.48 102.42 134.21C99.74 132.94 99.86 132.12 99.86 132.12C106.239 133.228 112.184 136.088 117.03 140.38C117.03 140.38 132.2 140.07 132.27 139.14Z" fill="#D6B7A0"/>
</g>
<g id="Group_7" opacity="0.5">
<path id="Vector_80" opacity="0.5" d="M87.5001 59.76C87.5001 59.76 60.9901 -1.51003 22.8801 26.59C22.8801 26.59 14.8101 28.93 14.8801 37.29C14.8801 37.29 18.0201 35.83 20.0001 42.36C20.7383 44.673 21.7452 46.8915 23.0001 48.97C24.6753 51.788 27.2243 53.9824 30.2601 55.22C30.2601 55.22 45.6201 68.44 76.2601 61.11C76.2601 61.11 84.6501 62.9 86.0901 61.94L76.7201 54.07C76.7201 54.07 71.2201 61.17 63.8401 61.51C63.8401 61.51 76.6701 54.61 75.3801 52.84C75.1201 52.48 70.2401 48.9 70.2401 48.9C70.2401 48.9 60.6101 61.18 49.2401 61.37C49.2401 61.37 65.6301 55.19 68.4301 47.52L60.7301 42.52C60.7301 42.52 51.0601 56.05 38.0701 56.76C38.0701 56.76 54.9701 49.71 58.8401 41.59L50.6101 37.76C50.6101 37.76 41.0501 50.76 30.2401 51.25C30.2401 51.25 48.9501 41.13 48.6601 37C48.6601 37 40.8901 33.9 38.4301 34.08C38.4301 34.08 31.3601 43.23 25.0501 42.97C25.0501 42.97 36.8401 34.88 36.1901 33.47C36.1901 33.47 24.9901 32.13 18.9601 34.47C18.9601 34.47 27.6201 30.39 36.3101 31.73C36.3101 31.73 32.6601 26.8 27.5601 25.43C27.5601 25.43 33.9301 23.3 39.0201 32.08C39.0201 32.08 47.7101 33.48 48.7201 34.52C48.7201 34.52 44.9201 25.13 39.7201 20.9C39.7201 20.9 47.7201 22.9 50.9301 35.47L59.2801 39.18C59.2801 39.18 54.9101 26.5 50.5701 22.39C50.5701 22.39 58.4401 25.67 61.3201 40.29L68.9101 45.08C68.9101 45.08 65.9701 33.88 62.1401 28.25C62.1401 28.25 68.7801 32.87 71.0401 46.54L75.7401 50.34C75.7401 50.34 73.4401 42.2 72.5701 39.92C71.7001 37.64 72.2501 37.22 72.2501 37.22C75.4043 41.5104 77.3049 46.5926 77.7401 51.9C77.7401 51.9 86.9401 60.29 87.5001 59.76Z" fill="#D6B7A0"/>
</g>
<g id="Group_8" opacity="0.5">
<path id="Vector_81" opacity="0.5" d="M604.18 91.64C604.18 91.64 597.93 61.64 578.18 70.75C577.082 70.8551 576.045 71.3056 575.218 72.0368C574.392 72.7681 573.818 73.7424 573.58 74.82C573.58 74.82 575.13 74.45 575.42 77.57C575.53 78.6772 575.768 79.7679 576.13 80.82C576.63 82.2389 577.573 83.4591 578.82 84.3C578.82 84.3 584.5 91.66 598.93 91.2C598.93 91.2 602.54 92.78 603.28 92.48L599.79 88.08C599.79 88.08 596.66 90.76 593.32 90.23C593.32 90.23 599.72 88.32 599.32 87.4C599.23 87.21 597.37 85.15 597.37 85.15C597.37 85.15 591.91 89.78 586.76 88.81C586.76 88.81 594.69 87.55 596.67 84.36L593.67 81.41C593.67 81.41 588.13 86.59 582.23 85.7C582.23 85.7 590.48 84.1 592.97 80.81L589.63 78.31C589.63 78.31 584.13 83.25 579.22 82.48C579.22 82.48 588.57 79.66 588.82 77.78C588.82 77.78 585.62 75.67 584.49 75.52C584.49 75.52 580.49 78.98 577.66 78.28C577.66 78.28 583.66 75.74 583.55 75.04C583.55 75.04 578.64 73.4 575.71 73.89C578.38 73.3113 581.155 73.4388 583.76 74.26C583.025 72.7441 581.86 71.4781 580.41 70.62C580.41 70.62 583.47 70.25 584.95 74.62C584.95 74.62 588.72 76.05 589.08 76.62C589.08 76.62 588.24 72.05 586.3 69.62C586.3 69.62 589.72 71.25 589.99 77.21L593.4 79.65C593.4 79.65 592.61 73.55 591.04 71.29C591.04 71.29 594.27 73.5 594.21 80.29L597.21 83.15C597.21 83.15 596.93 77.84 595.73 74.96C595.73 74.96 598.28 77.65 598.03 83.96L599.79 86.11C599.79 86.11 599.52 82.24 599.34 81.11C599.16 79.98 599.44 79.86 599.44 79.86C600.462 82.0847 600.846 84.5497 600.55 86.98C600.55 86.98 603.88 91.82 604.18 91.64Z" fill="#D6B7A0"/>
</g>
<g id="Group_9" opacity="0.5">
<path id="Vector_82" opacity="0.5" d="M496.56 647.76C496.56 647.76 490.32 617.76 470.56 626.87C469.46 626.975 468.422 627.425 467.594 628.156C466.765 628.887 466.19 629.862 465.95 630.94C465.95 630.94 467.5 630.57 467.79 633.69C467.898 634.799 468.14 635.89 468.51 636.94C469.007 638.358 469.946 639.578 471.19 640.42V640.42C471.19 640.42 476.87 647.78 491.31 647.32C491.31 647.32 494.92 648.9 495.65 648.6L492.17 644.2C492.17 644.2 489.04 646.88 485.69 646.35C485.69 646.35 492.09 644.44 491.69 643.52C491.61 643.33 489.74 641.27 489.74 641.27C489.74 641.27 484.28 645.9 479.13 644.93C479.13 644.93 487.07 643.67 489.04 640.48L486.04 637.48C486.04 637.48 480.56 642.68 474.64 641.76C474.64 641.76 482.89 640.16 485.38 636.87L482.04 634.37C482.04 634.37 476.55 639.31 471.64 638.54C471.64 638.54 480.99 635.73 481.24 633.84C481.24 633.84 478.03 631.73 476.91 631.58C476.91 631.58 472.91 635.04 470.07 634.34C470.07 634.34 476.07 631.8 475.96 631.1C475.96 631.1 471.05 629.46 468.12 629.95C470.793 629.371 473.571 629.499 476.18 630.32C475.441 628.807 474.277 627.541 472.83 626.68C472.83 626.68 475.88 626.31 477.36 630.68C477.36 630.68 481.14 632.11 481.5 632.68C481.5 632.68 480.66 628.11 478.72 625.68C478.72 625.68 482.14 627.31 482.4 633.27L485.82 635.71C485.82 635.71 485.02 629.61 483.45 627.35C483.45 627.35 486.69 629.56 486.63 636.35L489.63 639.21C489.63 639.21 489.35 633.9 488.14 631.02C488.14 631.02 490.7 633.71 490.45 640.02L492.21 642.17C492.21 642.17 491.93 638.3 491.75 637.17C491.57 636.04 491.85 635.93 491.85 635.93C492.873 638.151 493.257 640.613 492.96 643.04C492.96 643.04 496.28 647.91 496.56 647.76Z" fill="#D6B7A0"/>
</g>
</g>
</svg>
