<svg width="524" height="397" viewBox="0 0 524 397" fill="none" xmlns="http://www.w3.org/2000/svg">
<path id="stick-bnt" d="M516.834 47.7786L475.834 6.54857C473.824 4.4933 471.426 2.85647 468.78 1.73259C466.134 0.608705 463.292 0.0200263 460.417 0.000502123C457.543 -0.0190221 454.693 0.53101 452.032 1.61885C449.371 2.70669 446.951 4.3108 444.914 6.33858L187.454 261.619L78.5936 151.909C74.5516 147.809 69.0464 145.482 63.2892 145.441C57.5319 145.4 51.994 147.647 47.8936 151.689L6.4536 192.689C2.35834 196.779 0.0398168 202.318 0.000508062 208.105C-0.0388007 213.893 2.20428 219.463 6.24361 223.609L171.564 390.229C175.652 394.325 181.191 396.645 186.978 396.687C192.766 396.728 198.337 394.487 202.484 390.449L516.604 78.6886C518.659 76.68 520.296 74.2845 521.421 71.6402C522.545 68.9958 523.135 66.155 523.157 63.2815C523.178 60.408 522.63 57.5586 521.545 54.8978C520.46 52.2371 518.859 49.8175 516.834 47.7786Z" fill="#5E9194"/>
</svg>
